<mxfile host="Electron" agent="Mozilla/5.0 (Windows NT 10.0; Win64; x64) AppleWebKit/537.36 (KHTML, like Gecko) draw.io/27.0.9 Chrome/134.0.6998.205 Electron/35.4.0 Safari/537.36" version="27.0.9" pages="4">
  <diagram name="simple_text" id="YSnqWa_t1MuekRYpHCEV">
    <mxGraphModel dx="2276" dy="1975" grid="1" gridSize="10" guides="1" tooltips="1" connect="1" arrows="0" fold="1" page="1" pageScale="1" pageWidth="850" pageHeight="1100" background="none" math="0" shadow="0">
      <root>
        <mxCell id="0" />
        <mxCell id="1" parent="0" />
        <mxCell id="HOFrl4J9IcqPGJMh1fu1-2" value="&lt;b&gt;&lt;i&gt;Start&lt;/i&gt;&lt;/b&gt;" style="ellipse;whiteSpace=wrap;html=1;shadow=1;" parent="1" vertex="1">
          <mxGeometry x="390" y="-970" width="100" height="40" as="geometry" />
        </mxCell>
        <mxCell id="HOFrl4J9IcqPGJMh1fu1-15" style="edgeStyle=orthogonalEdgeStyle;rounded=0;orthogonalLoop=1;jettySize=auto;html=1;exitX=0;exitY=0.5;exitDx=0;exitDy=0;entryX=1;entryY=0.5;entryDx=0;entryDy=0;shadow=1;" parent="1" source="HOFrl4J9IcqPGJMh1fu1-3" target="HOFrl4J9IcqPGJMh1fu1-14" edge="1">
          <mxGeometry relative="1" as="geometry" />
        </mxCell>
        <mxCell id="HOFrl4J9IcqPGJMh1fu1-49" style="edgeStyle=orthogonalEdgeStyle;rounded=0;orthogonalLoop=1;jettySize=auto;html=1;exitX=1;exitY=0.5;exitDx=0;exitDy=0;entryX=0;entryY=0.5;entryDx=0;entryDy=0;shadow=1;" parent="1" source="HOFrl4J9IcqPGJMh1fu1-3" target="HOFrl4J9IcqPGJMh1fu1-10" edge="1">
          <mxGeometry relative="1" as="geometry" />
        </mxCell>
        <mxCell id="HOFrl4J9IcqPGJMh1fu1-3" value="&lt;b&gt;&lt;i&gt;Template selection&lt;/i&gt;&lt;/b&gt;" style="rhombus;whiteSpace=wrap;html=1;shadow=1;" parent="1" vertex="1">
          <mxGeometry x="370" y="-870" width="140" height="140" as="geometry" />
        </mxCell>
        <mxCell id="HOFrl4J9IcqPGJMh1fu1-5" value="&lt;b&gt;&lt;font style=&quot;font-size: 14px;&quot;&gt;UML Diagram for publishing message with simple text&lt;/font&gt;&amp;nbsp;&lt;/b&gt;" style="text;html=1;align=center;verticalAlign=middle;resizable=0;points=[];autosize=1;strokeColor=none;fillColor=none;shadow=1;" parent="1" vertex="1">
          <mxGeometry x="265" y="-1040" width="390" height="30" as="geometry" />
        </mxCell>
        <mxCell id="HOFrl4J9IcqPGJMh1fu1-8" value="" style="endArrow=classic;html=1;rounded=0;exitX=0.5;exitY=1;exitDx=0;exitDy=0;shadow=1;" parent="1" source="HOFrl4J9IcqPGJMh1fu1-2" target="HOFrl4J9IcqPGJMh1fu1-3" edge="1">
          <mxGeometry width="50" height="50" relative="1" as="geometry">
            <mxPoint x="550" y="-830" as="sourcePoint" />
            <mxPoint x="600" y="-880" as="targetPoint" />
          </mxGeometry>
        </mxCell>
        <mxCell id="HOFrl4J9IcqPGJMh1fu1-9" style="edgeStyle=orthogonalEdgeStyle;rounded=0;orthogonalLoop=1;jettySize=auto;html=1;exitX=0.5;exitY=1;exitDx=0;exitDy=0;shadow=1;" parent="1" source="HOFrl4J9IcqPGJMh1fu1-3" target="HOFrl4J9IcqPGJMh1fu1-3" edge="1">
          <mxGeometry relative="1" as="geometry" />
        </mxCell>
        <mxCell id="HOFrl4J9IcqPGJMh1fu1-19" style="edgeStyle=orthogonalEdgeStyle;rounded=0;orthogonalLoop=1;jettySize=auto;html=1;exitX=0.5;exitY=1;exitDx=0;exitDy=0;shadow=1;" parent="1" source="HOFrl4J9IcqPGJMh1fu1-10" edge="1">
          <mxGeometry relative="1" as="geometry">
            <mxPoint x="705" y="-700" as="targetPoint" />
          </mxGeometry>
        </mxCell>
        <mxCell id="HOFrl4J9IcqPGJMh1fu1-10" value="&lt;b&gt;&lt;i&gt;Select template from existing template list&lt;/i&gt;&lt;/b&gt;" style="rounded=1;whiteSpace=wrap;html=1;shadow=1;glass=0;" parent="1" vertex="1">
          <mxGeometry x="640" y="-835" width="130" height="70" as="geometry" />
        </mxCell>
        <mxCell id="8tmg3JZRFHcU1OI_kjZh-2" style="edgeStyle=orthogonalEdgeStyle;rounded=0;orthogonalLoop=1;jettySize=auto;html=1;exitX=0.5;exitY=1;exitDx=0;exitDy=0;entryX=0.5;entryY=0;entryDx=0;entryDy=0;shadow=1;" edge="1" parent="1" source="HOFrl4J9IcqPGJMh1fu1-14" target="8tmg3JZRFHcU1OI_kjZh-1">
          <mxGeometry relative="1" as="geometry" />
        </mxCell>
        <mxCell id="HOFrl4J9IcqPGJMh1fu1-14" value="&lt;b&gt;&lt;i&gt;Create New Template&lt;/i&gt;&lt;/b&gt;" style="rounded=1;whiteSpace=wrap;html=1;shadow=1;" parent="1" vertex="1">
          <mxGeometry x="100" y="-830" width="135" height="60" as="geometry" />
        </mxCell>
        <mxCell id="vFp-LeYojBVi3uRkS_I5-22" style="edgeStyle=orthogonalEdgeStyle;rounded=0;orthogonalLoop=1;jettySize=auto;html=1;exitX=0.5;exitY=1;exitDx=0;exitDy=0;entryX=0.5;entryY=0;entryDx=0;entryDy=0;shadow=1;" parent="1" source="HOFrl4J9IcqPGJMh1fu1-21" target="vFp-LeYojBVi3uRkS_I5-20" edge="1">
          <mxGeometry relative="1" as="geometry" />
        </mxCell>
        <mxCell id="HOFrl4J9IcqPGJMh1fu1-21" value="&lt;b&gt;&lt;i&gt;Simple Text&lt;/i&gt;&lt;/b&gt;" style="rounded=1;whiteSpace=wrap;html=1;shadow=1;" parent="1" vertex="1">
          <mxGeometry x="645" y="-700" width="120" height="60" as="geometry" />
        </mxCell>
        <mxCell id="vFp-LeYojBVi3uRkS_I5-9" style="edgeStyle=orthogonalEdgeStyle;rounded=0;orthogonalLoop=1;jettySize=auto;html=1;exitX=0;exitY=0.5;exitDx=0;exitDy=0;entryX=1;entryY=0.5;entryDx=0;entryDy=0;shadow=1;" parent="1" source="HOFrl4J9IcqPGJMh1fu1-25" target="HOFrl4J9IcqPGJMh1fu1-21" edge="1">
          <mxGeometry relative="1" as="geometry" />
        </mxCell>
        <mxCell id="HOFrl4J9IcqPGJMh1fu1-25" value="&lt;b&gt;&lt;i&gt;Header&lt;/i&gt;&lt;/b&gt;" style="rounded=1;whiteSpace=wrap;html=1;shadow=1;" parent="1" vertex="1">
          <mxGeometry x="980" y="-840" width="120" height="60" as="geometry" />
        </mxCell>
        <mxCell id="vFp-LeYojBVi3uRkS_I5-17" style="edgeStyle=orthogonalEdgeStyle;rounded=0;orthogonalLoop=1;jettySize=auto;html=1;exitX=0;exitY=0.5;exitDx=0;exitDy=0;entryX=1;entryY=0.5;entryDx=0;entryDy=0;shadow=1;" parent="1" source="HOFrl4J9IcqPGJMh1fu1-33" target="HOFrl4J9IcqPGJMh1fu1-25" edge="1">
          <mxGeometry relative="1" as="geometry" />
        </mxCell>
        <mxCell id="HOFrl4J9IcqPGJMh1fu1-33" value="&lt;p style=&quot;margin:0px;margin-top:4px;text-align:center;&quot;&gt;&lt;b&gt;Header Type&lt;/b&gt;&lt;/p&gt;&lt;hr size=&quot;1&quot; style=&quot;border-style:solid;&quot;&gt;&lt;p style=&quot;margin:0px;margin-left:4px;&quot;&gt;+ Format: string = &quot;TEXT&quot;&lt;br&gt;+ Size: Int&lt;/p&gt;&lt;p style=&quot;margin:0px;margin-left:4px;&quot;&gt;&lt;br&gt;&lt;/p&gt;" style="verticalAlign=top;align=left;overflow=fill;html=1;whiteSpace=wrap;shadow=1;" parent="1" vertex="1">
          <mxGeometry x="1201" y="-845" width="190" height="70" as="geometry" />
        </mxCell>
        <mxCell id="HOFrl4J9IcqPGJMh1fu1-38" value="&lt;b&gt;&lt;i&gt;Option 2&lt;/i&gt;&lt;/b&gt;" style="text;html=1;align=center;verticalAlign=middle;resizable=0;points=[];autosize=1;strokeColor=none;fillColor=none;shadow=1;" parent="1" vertex="1">
          <mxGeometry x="525" y="-832" width="70" height="30" as="geometry" />
        </mxCell>
        <mxCell id="HOFrl4J9IcqPGJMh1fu1-39" value="&lt;b&gt;&lt;i&gt;Option 1&lt;/i&gt;&lt;/b&gt;" style="text;html=1;align=center;verticalAlign=middle;resizable=0;points=[];autosize=1;strokeColor=none;fillColor=none;shadow=1;" parent="1" vertex="1">
          <mxGeometry x="295" y="-832" width="70" height="30" as="geometry" />
        </mxCell>
        <mxCell id="vFp-LeYojBVi3uRkS_I5-28" style="edgeStyle=orthogonalEdgeStyle;rounded=0;orthogonalLoop=1;jettySize=auto;html=1;exitX=0;exitY=0.5;exitDx=0;exitDy=0;entryX=1;entryY=0.5;entryDx=0;entryDy=0;shadow=1;" parent="1" source="HOFrl4J9IcqPGJMh1fu1-42" target="HOFrl4J9IcqPGJMh1fu1-44" edge="1">
          <mxGeometry relative="1" as="geometry" />
        </mxCell>
        <mxCell id="HOFrl4J9IcqPGJMh1fu1-42" value="&lt;p style=&quot;margin:0px;margin-top:4px;text-align:center;&quot;&gt;&lt;b&gt;Body Type&lt;/b&gt;&lt;/p&gt;&lt;hr size=&quot;1&quot; style=&quot;border-style:solid;&quot;&gt;&lt;p style=&quot;margin:0px;margin-left:4px;&quot;&gt;+ Format: string = &quot;TEXT&quot;&lt;br&gt;+ Size: Int&lt;/p&gt;&lt;p style=&quot;margin:0px;margin-left:4px;&quot;&gt;&lt;br&gt;&lt;/p&gt;" style="verticalAlign=top;align=left;overflow=fill;html=1;whiteSpace=wrap;shadow=1;" parent="1" vertex="1">
          <mxGeometry x="1201" y="-705" width="190" height="70" as="geometry" />
        </mxCell>
        <mxCell id="vFp-LeYojBVi3uRkS_I5-10" style="edgeStyle=orthogonalEdgeStyle;rounded=0;orthogonalLoop=1;jettySize=auto;html=1;exitX=0;exitY=0.5;exitDx=0;exitDy=0;entryX=1;entryY=0.5;entryDx=0;entryDy=0;shadow=1;" parent="1" source="HOFrl4J9IcqPGJMh1fu1-44" target="HOFrl4J9IcqPGJMh1fu1-21" edge="1">
          <mxGeometry relative="1" as="geometry" />
        </mxCell>
        <mxCell id="HOFrl4J9IcqPGJMh1fu1-44" value="&lt;b&gt;&lt;i&gt;Body&lt;/i&gt;&lt;/b&gt;" style="rounded=1;whiteSpace=wrap;html=1;shadow=1;" parent="1" vertex="1">
          <mxGeometry x="980" y="-700" width="120" height="60" as="geometry" />
        </mxCell>
        <mxCell id="vFp-LeYojBVi3uRkS_I5-4" value="&lt;b&gt;&lt;i&gt;Stop&lt;/i&gt;&lt;/b&gt;" style="ellipse;whiteSpace=wrap;html=1;aspect=fixed;shadow=1;" parent="1" vertex="1">
          <mxGeometry x="410" y="-79" width="60" height="60" as="geometry" />
        </mxCell>
        <mxCell id="vFp-LeYojBVi3uRkS_I5-36" style="edgeStyle=orthogonalEdgeStyle;rounded=0;orthogonalLoop=1;jettySize=auto;html=1;exitX=0.5;exitY=1;exitDx=0;exitDy=0;entryX=0.5;entryY=0;entryDx=0;entryDy=0;shadow=1;" parent="1" source="vFp-LeYojBVi3uRkS_I5-20" target="vFp-LeYojBVi3uRkS_I5-32" edge="1">
          <mxGeometry relative="1" as="geometry" />
        </mxCell>
        <mxCell id="vFp-LeYojBVi3uRkS_I5-20" value="&lt;b&gt;&lt;i&gt;Preview Message&lt;/i&gt;&lt;/b&gt;" style="rounded=1;whiteSpace=wrap;html=1;shadow=1;" parent="1" vertex="1">
          <mxGeometry x="645" y="-570" width="120" height="60" as="geometry" />
        </mxCell>
        <mxCell id="vFp-LeYojBVi3uRkS_I5-25" style="edgeStyle=orthogonalEdgeStyle;rounded=0;orthogonalLoop=1;jettySize=auto;html=1;exitX=0.5;exitY=1;exitDx=0;exitDy=0;entryX=0.5;entryY=0;entryDx=0;entryDy=0;shadow=1;" parent="1" source="vFp-LeYojBVi3uRkS_I5-21" target="vFp-LeYojBVi3uRkS_I5-4" edge="1">
          <mxGeometry relative="1" as="geometry" />
        </mxCell>
        <mxCell id="vFp-LeYojBVi3uRkS_I5-21" value="&lt;b&gt;&lt;i&gt;send message to user&lt;/i&gt;&lt;/b&gt;" style="rounded=1;whiteSpace=wrap;html=1;shadow=1;" parent="1" vertex="1">
          <mxGeometry x="380" y="-220" width="120" height="60" as="geometry" />
        </mxCell>
        <mxCell id="vFp-LeYojBVi3uRkS_I5-27" style="edgeStyle=orthogonalEdgeStyle;rounded=0;orthogonalLoop=1;jettySize=auto;html=1;exitX=0;exitY=0.5;exitDx=0;exitDy=0;entryX=1;entryY=0.5;entryDx=0;entryDy=0;shadow=1;" parent="1" source="vFp-LeYojBVi3uRkS_I5-26" target="HOFrl4J9IcqPGJMh1fu1-21" edge="1">
          <mxGeometry relative="1" as="geometry" />
        </mxCell>
        <mxCell id="vFp-LeYojBVi3uRkS_I5-26" value="&lt;b&gt;&lt;i&gt;Footer&lt;br&gt;(optional)&lt;/i&gt;&lt;/b&gt;" style="rounded=1;whiteSpace=wrap;html=1;shadow=1;" parent="1" vertex="1">
          <mxGeometry x="980" y="-560" width="120" height="60" as="geometry" />
        </mxCell>
        <mxCell id="vFp-LeYojBVi3uRkS_I5-30" style="edgeStyle=orthogonalEdgeStyle;rounded=0;orthogonalLoop=1;jettySize=auto;html=1;exitX=0;exitY=0.5;exitDx=0;exitDy=0;entryX=1;entryY=0.5;entryDx=0;entryDy=0;shadow=1;" parent="1" source="vFp-LeYojBVi3uRkS_I5-29" target="vFp-LeYojBVi3uRkS_I5-26" edge="1">
          <mxGeometry relative="1" as="geometry" />
        </mxCell>
        <mxCell id="vFp-LeYojBVi3uRkS_I5-29" value="&lt;p style=&quot;margin:0px;margin-top:4px;text-align:center;&quot;&gt;&lt;b&gt;Footer Type&lt;/b&gt;&lt;/p&gt;&lt;hr size=&quot;1&quot; style=&quot;border-style:solid;&quot;&gt;&lt;p style=&quot;margin:0px;margin-left:4px;&quot;&gt;+ Format: string = &quot;TEXT&quot;&lt;br&gt;+ Size: Int&lt;/p&gt;&lt;p style=&quot;margin:0px;margin-left:4px;&quot;&gt;&lt;br&gt;&lt;/p&gt;" style="verticalAlign=top;align=left;overflow=fill;html=1;whiteSpace=wrap;shadow=1;" parent="1" vertex="1">
          <mxGeometry x="1201" y="-565" width="190" height="70" as="geometry" />
        </mxCell>
        <mxCell id="vFp-LeYojBVi3uRkS_I5-35" style="edgeStyle=orthogonalEdgeStyle;rounded=0;orthogonalLoop=1;jettySize=auto;html=1;exitX=0;exitY=0.5;exitDx=0;exitDy=0;entryX=0;entryY=0.5;entryDx=0;entryDy=0;shadow=1;" parent="1" source="vFp-LeYojBVi3uRkS_I5-32" target="HOFrl4J9IcqPGJMh1fu1-21" edge="1">
          <mxGeometry relative="1" as="geometry">
            <Array as="points">
              <mxPoint x="570" y="-415" />
              <mxPoint x="570" y="-670" />
            </Array>
          </mxGeometry>
        </mxCell>
        <mxCell id="V7I8MOOoXkcTI-chPYZB-2" style="edgeStyle=orthogonalEdgeStyle;rounded=0;orthogonalLoop=1;jettySize=auto;html=1;exitX=0.5;exitY=1;exitDx=0;exitDy=0;entryX=0.5;entryY=0;entryDx=0;entryDy=0;shadow=1;" edge="1" parent="1" source="vFp-LeYojBVi3uRkS_I5-32" target="V7I8MOOoXkcTI-chPYZB-1">
          <mxGeometry relative="1" as="geometry" />
        </mxCell>
        <mxCell id="vFp-LeYojBVi3uRkS_I5-32" value="&lt;b&gt;&lt;i&gt;Confirmation&lt;/i&gt;&lt;/b&gt;" style="rhombus;whiteSpace=wrap;html=1;shadow=1;" parent="1" vertex="1">
          <mxGeometry x="652.5" y="-470" width="105" height="110" as="geometry" />
        </mxCell>
        <mxCell id="vFp-LeYojBVi3uRkS_I5-34" value="&lt;b&gt;&lt;i&gt;YES&lt;/i&gt;&lt;/b&gt;" style="text;html=1;align=center;verticalAlign=middle;resizable=0;points=[];autosize=1;strokeColor=none;fillColor=none;shadow=1;" parent="1" vertex="1">
          <mxGeometry x="652.5" y="-360" width="50" height="30" as="geometry" />
        </mxCell>
        <mxCell id="vFp-LeYojBVi3uRkS_I5-37" value="&lt;b&gt;&lt;i&gt;NO&lt;/i&gt;&lt;/b&gt;" style="text;html=1;align=center;verticalAlign=middle;resizable=0;points=[];autosize=1;strokeColor=none;fillColor=none;shadow=1;" parent="1" vertex="1">
          <mxGeometry x="600" y="-442" width="40" height="30" as="geometry" />
        </mxCell>
        <mxCell id="V7I8MOOoXkcTI-chPYZB-3" style="edgeStyle=orthogonalEdgeStyle;rounded=0;orthogonalLoop=1;jettySize=auto;html=1;exitX=0.5;exitY=1;exitDx=0;exitDy=0;entryX=1;entryY=0.5;entryDx=0;entryDy=0;shadow=1;" edge="1" parent="1" source="V7I8MOOoXkcTI-chPYZB-1" target="vFp-LeYojBVi3uRkS_I5-21">
          <mxGeometry relative="1" as="geometry" />
        </mxCell>
        <mxCell id="V7I8MOOoXkcTI-chPYZB-1" value="&lt;b&gt;&lt;i&gt;Recipient&#39;s Phone number&lt;br&gt;(Approved)&lt;/i&gt;&lt;/b&gt;" style="rounded=1;whiteSpace=wrap;html=1;shadow=1;" vertex="1" parent="1">
          <mxGeometry x="645" y="-310" width="120" height="60" as="geometry" />
        </mxCell>
        <mxCell id="8tmg3JZRFHcU1OI_kjZh-4" style="edgeStyle=orthogonalEdgeStyle;rounded=0;orthogonalLoop=1;jettySize=auto;html=1;exitX=0.5;exitY=1;exitDx=0;exitDy=0;shadow=1;" edge="1" parent="1" source="8tmg3JZRFHcU1OI_kjZh-1" target="8tmg3JZRFHcU1OI_kjZh-3">
          <mxGeometry relative="1" as="geometry" />
        </mxCell>
        <mxCell id="8tmg3JZRFHcU1OI_kjZh-1" value="&lt;b&gt;&lt;i&gt;Template Components&lt;/i&gt;&lt;/b&gt;" style="rounded=1;whiteSpace=wrap;html=1;shadow=1;" vertex="1" parent="1">
          <mxGeometry x="100" y="-647" width="135" height="60" as="geometry" />
        </mxCell>
        <mxCell id="8tmg3JZRFHcU1OI_kjZh-8" style="edgeStyle=orthogonalEdgeStyle;rounded=0;orthogonalLoop=1;jettySize=auto;html=1;exitX=0.5;exitY=1;exitDx=0;exitDy=0;shadow=1;" edge="1" parent="1" source="8tmg3JZRFHcU1OI_kjZh-3" target="8tmg3JZRFHcU1OI_kjZh-7">
          <mxGeometry relative="1" as="geometry" />
        </mxCell>
        <mxCell id="8tmg3JZRFHcU1OI_kjZh-3" value="&lt;b&gt;&lt;i&gt;Preview Template&lt;/i&gt;&lt;/b&gt;" style="rounded=1;whiteSpace=wrap;html=1;shadow=1;" vertex="1" parent="1">
          <mxGeometry x="100" y="-470" width="135" height="60" as="geometry" />
        </mxCell>
        <mxCell id="8tmg3JZRFHcU1OI_kjZh-10" style="edgeStyle=orthogonalEdgeStyle;rounded=0;orthogonalLoop=1;jettySize=auto;html=1;exitX=0.5;exitY=1;exitDx=0;exitDy=0;entryX=0;entryY=0.5;entryDx=0;entryDy=0;shadow=1;" edge="1" parent="1" source="8tmg3JZRFHcU1OI_kjZh-7" target="vFp-LeYojBVi3uRkS_I5-4">
          <mxGeometry relative="1" as="geometry" />
        </mxCell>
        <mxCell id="8tmg3JZRFHcU1OI_kjZh-7" value="&lt;b&gt;&lt;i&gt;Response&lt;/i&gt;&lt;/b&gt;" style="rounded=1;whiteSpace=wrap;html=1;shadow=1;" vertex="1" parent="1">
          <mxGeometry x="100" y="-290" width="135" height="60" as="geometry" />
        </mxCell>
        <mxCell id="8tmg3JZRFHcU1OI_kjZh-14" style="edgeStyle=orthogonalEdgeStyle;rounded=0;orthogonalLoop=1;jettySize=auto;html=1;exitX=1;exitY=0.5;exitDx=0;exitDy=0;entryX=0;entryY=0.5;entryDx=0;entryDy=0;shadow=1;" edge="1" parent="1" source="8tmg3JZRFHcU1OI_kjZh-11" target="8tmg3JZRFHcU1OI_kjZh-1">
          <mxGeometry relative="1" as="geometry" />
        </mxCell>
        <mxCell id="8tmg3JZRFHcU1OI_kjZh-11" value="&lt;b&gt;&lt;i&gt;Header Component&lt;/i&gt;&lt;/b&gt;" style="rounded=1;whiteSpace=wrap;html=1;shadow=1;" vertex="1" parent="1">
          <mxGeometry x="-160" y="-770" width="135" height="60" as="geometry" />
        </mxCell>
        <mxCell id="8tmg3JZRFHcU1OI_kjZh-18" style="edgeStyle=orthogonalEdgeStyle;rounded=0;orthogonalLoop=1;jettySize=auto;html=1;exitX=1;exitY=0.5;exitDx=0;exitDy=0;entryX=0;entryY=0.5;entryDx=0;entryDy=0;shadow=1;" edge="1" parent="1" source="8tmg3JZRFHcU1OI_kjZh-12" target="8tmg3JZRFHcU1OI_kjZh-1">
          <mxGeometry relative="1" as="geometry" />
        </mxCell>
        <mxCell id="8tmg3JZRFHcU1OI_kjZh-12" value="&lt;b&gt;&lt;i&gt;Body Component&lt;/i&gt;&lt;/b&gt;" style="rounded=1;whiteSpace=wrap;html=1;shadow=1;" vertex="1" parent="1">
          <mxGeometry x="-160" y="-647" width="135" height="60" as="geometry" />
        </mxCell>
        <mxCell id="8tmg3JZRFHcU1OI_kjZh-16" style="edgeStyle=orthogonalEdgeStyle;rounded=0;orthogonalLoop=1;jettySize=auto;html=1;exitX=1;exitY=0.5;exitDx=0;exitDy=0;entryX=0;entryY=0.5;entryDx=0;entryDy=0;shadow=1;" edge="1" parent="1" source="8tmg3JZRFHcU1OI_kjZh-13" target="8tmg3JZRFHcU1OI_kjZh-1">
          <mxGeometry relative="1" as="geometry" />
        </mxCell>
        <mxCell id="8tmg3JZRFHcU1OI_kjZh-13" value="&lt;b&gt;&lt;i&gt;Footer Component&lt;br&gt;(Optional)&lt;/i&gt;&lt;/b&gt;" style="rounded=1;whiteSpace=wrap;html=1;shadow=1;" vertex="1" parent="1">
          <mxGeometry x="-160" y="-520" width="135" height="60" as="geometry" />
        </mxCell>
        <mxCell id="8tmg3JZRFHcU1OI_kjZh-21" style="edgeStyle=orthogonalEdgeStyle;rounded=0;orthogonalLoop=1;jettySize=auto;html=1;exitX=1;exitY=0.5;exitDx=0;exitDy=0;entryX=0;entryY=0.5;entryDx=0;entryDy=0;shadow=1;" edge="1" parent="1" source="8tmg3JZRFHcU1OI_kjZh-20" target="8tmg3JZRFHcU1OI_kjZh-11">
          <mxGeometry relative="1" as="geometry" />
        </mxCell>
        <mxCell id="8tmg3JZRFHcU1OI_kjZh-20" value="&lt;p style=&quot;margin:0px;margin-top:4px;text-align:center;&quot;&gt;&lt;b&gt;Header Type&lt;/b&gt;&lt;/p&gt;&lt;hr size=&quot;1&quot; style=&quot;border-style:solid;&quot;&gt;&lt;p style=&quot;margin:0px;margin-left:4px;&quot;&gt;+ Format: string = &quot;TEXT&quot;&lt;br&gt;+ Size: Int&lt;/p&gt;&lt;p style=&quot;margin:0px;margin-left:4px;&quot;&gt;&lt;br&gt;&lt;/p&gt;" style="verticalAlign=top;align=left;overflow=fill;html=1;whiteSpace=wrap;shadow=1;" vertex="1" parent="1">
          <mxGeometry x="-430" y="-775" width="190" height="70" as="geometry" />
        </mxCell>
        <mxCell id="8tmg3JZRFHcU1OI_kjZh-23" style="edgeStyle=orthogonalEdgeStyle;rounded=0;orthogonalLoop=1;jettySize=auto;html=1;exitX=1;exitY=0.5;exitDx=0;exitDy=0;entryX=0;entryY=0.5;entryDx=0;entryDy=0;shadow=1;" edge="1" parent="1" source="8tmg3JZRFHcU1OI_kjZh-22" target="8tmg3JZRFHcU1OI_kjZh-12">
          <mxGeometry relative="1" as="geometry" />
        </mxCell>
        <mxCell id="8tmg3JZRFHcU1OI_kjZh-22" value="&lt;p style=&quot;margin:0px;margin-top:4px;text-align:center;&quot;&gt;&lt;b&gt;Body Type&lt;/b&gt;&lt;/p&gt;&lt;hr size=&quot;1&quot; style=&quot;border-style:solid;&quot;&gt;&lt;p style=&quot;margin:0px;margin-left:4px;&quot;&gt;+ Format: string = &quot;TEXT&quot;&lt;br&gt;+ Size: Int&lt;/p&gt;&lt;p style=&quot;margin:0px;margin-left:4px;&quot;&gt;&lt;br&gt;&lt;/p&gt;" style="verticalAlign=top;align=left;overflow=fill;html=1;whiteSpace=wrap;shadow=1;" vertex="1" parent="1">
          <mxGeometry x="-430" y="-652" width="190" height="70" as="geometry" />
        </mxCell>
        <mxCell id="8tmg3JZRFHcU1OI_kjZh-25" style="edgeStyle=orthogonalEdgeStyle;rounded=0;orthogonalLoop=1;jettySize=auto;html=1;exitX=1;exitY=0.5;exitDx=0;exitDy=0;entryX=0;entryY=0.5;entryDx=0;entryDy=0;shadow=1;" edge="1" parent="1" source="8tmg3JZRFHcU1OI_kjZh-24" target="8tmg3JZRFHcU1OI_kjZh-13">
          <mxGeometry relative="1" as="geometry" />
        </mxCell>
        <mxCell id="8tmg3JZRFHcU1OI_kjZh-24" value="&lt;p style=&quot;margin:0px;margin-top:4px;text-align:center;&quot;&gt;&lt;b&gt;Footer Type&lt;/b&gt;&lt;/p&gt;&lt;hr size=&quot;1&quot; style=&quot;border-style:solid;&quot;&gt;&lt;p style=&quot;margin:0px;margin-left:4px;&quot;&gt;+ Format: string = &quot;TEXT&quot;&lt;br&gt;+ Size: Int&lt;/p&gt;&lt;p style=&quot;margin:0px;margin-left:4px;&quot;&gt;&lt;br&gt;&lt;/p&gt;" style="verticalAlign=top;align=left;overflow=fill;html=1;whiteSpace=wrap;shadow=1;" vertex="1" parent="1">
          <mxGeometry x="-430" y="-525" width="190" height="70" as="geometry" />
        </mxCell>
      </root>
    </mxGraphModel>
  </diagram>
  <diagram id="rCEDGnXmKyPerrJHA6gC" name="text_with_media">
    <mxGraphModel dx="2276" dy="875" grid="1" gridSize="10" guides="1" tooltips="1" connect="1" arrows="1" fold="1" page="1" pageScale="1" pageWidth="850" pageHeight="1100" math="0" shadow="0">
      <root>
        <mxCell id="0" />
        <mxCell id="1" parent="0" />
        <mxCell id="gVauifpFFM7VJ2_umBUF-1" value="&lt;b&gt;&lt;i&gt;Start&lt;/i&gt;&lt;/b&gt;" style="ellipse;whiteSpace=wrap;html=1;shadow=1;" parent="1" vertex="1">
          <mxGeometry x="352" y="107" width="100" height="40" as="geometry" />
        </mxCell>
        <mxCell id="gVauifpFFM7VJ2_umBUF-2" style="edgeStyle=orthogonalEdgeStyle;rounded=0;orthogonalLoop=1;jettySize=auto;html=1;exitX=0;exitY=0.5;exitDx=0;exitDy=0;entryX=1;entryY=0.5;entryDx=0;entryDy=0;shadow=1;" parent="1" source="gVauifpFFM7VJ2_umBUF-4" target="gVauifpFFM7VJ2_umBUF-11" edge="1">
          <mxGeometry relative="1" as="geometry" />
        </mxCell>
        <mxCell id="gVauifpFFM7VJ2_umBUF-3" style="edgeStyle=orthogonalEdgeStyle;rounded=0;orthogonalLoop=1;jettySize=auto;html=1;exitX=1;exitY=0.5;exitDx=0;exitDy=0;entryX=0;entryY=0.5;entryDx=0;entryDy=0;shadow=1;" parent="1" source="gVauifpFFM7VJ2_umBUF-4" target="gVauifpFFM7VJ2_umBUF-9" edge="1">
          <mxGeometry relative="1" as="geometry" />
        </mxCell>
        <mxCell id="gVauifpFFM7VJ2_umBUF-4" value="&lt;b&gt;&lt;i&gt;Template selection&lt;/i&gt;&lt;/b&gt;" style="rhombus;whiteSpace=wrap;html=1;shadow=1;" parent="1" vertex="1">
          <mxGeometry x="332" y="207" width="140" height="140" as="geometry" />
        </mxCell>
        <mxCell id="gVauifpFFM7VJ2_umBUF-5" value="&lt;b&gt;&lt;font style=&quot;font-size: 14px;&quot;&gt;UML Diagram for publishing message with media and text&lt;/font&gt;&amp;nbsp;&lt;/b&gt;" style="text;html=1;align=center;verticalAlign=middle;resizable=0;points=[];autosize=1;strokeColor=none;fillColor=none;shadow=1;" parent="1" vertex="1">
          <mxGeometry x="217" y="37" width="410" height="30" as="geometry" />
        </mxCell>
        <mxCell id="gVauifpFFM7VJ2_umBUF-6" value="" style="endArrow=classic;html=1;rounded=0;exitX=0.5;exitY=1;exitDx=0;exitDy=0;shadow=1;" parent="1" source="gVauifpFFM7VJ2_umBUF-1" target="gVauifpFFM7VJ2_umBUF-4" edge="1">
          <mxGeometry width="50" height="50" relative="1" as="geometry">
            <mxPoint x="512" y="247" as="sourcePoint" />
            <mxPoint x="562" y="197" as="targetPoint" />
          </mxGeometry>
        </mxCell>
        <mxCell id="gVauifpFFM7VJ2_umBUF-7" style="edgeStyle=orthogonalEdgeStyle;rounded=0;orthogonalLoop=1;jettySize=auto;html=1;exitX=0.5;exitY=1;exitDx=0;exitDy=0;shadow=1;" parent="1" source="gVauifpFFM7VJ2_umBUF-4" target="gVauifpFFM7VJ2_umBUF-4" edge="1">
          <mxGeometry relative="1" as="geometry" />
        </mxCell>
        <mxCell id="gVauifpFFM7VJ2_umBUF-8" style="edgeStyle=orthogonalEdgeStyle;rounded=0;orthogonalLoop=1;jettySize=auto;html=1;exitX=0.5;exitY=1;exitDx=0;exitDy=0;shadow=1;" parent="1" source="gVauifpFFM7VJ2_umBUF-9" edge="1">
          <mxGeometry relative="1" as="geometry">
            <mxPoint x="667" y="377" as="targetPoint" />
          </mxGeometry>
        </mxCell>
        <mxCell id="gVauifpFFM7VJ2_umBUF-9" value="&lt;b&gt;&lt;i&gt;Select template from existing template list&lt;/i&gt;&lt;/b&gt;" style="rounded=1;whiteSpace=wrap;html=1;shadow=1;glass=0;" parent="1" vertex="1">
          <mxGeometry x="602" y="242" width="130" height="70" as="geometry" />
        </mxCell>
        <mxCell id="_ZzVW3U5dQhS0mA4fsWM-21" style="edgeStyle=orthogonalEdgeStyle;rounded=0;orthogonalLoop=1;jettySize=auto;html=1;exitX=0.5;exitY=1;exitDx=0;exitDy=0;entryX=0.5;entryY=0;entryDx=0;entryDy=0;shadow=1;" edge="1" parent="1" source="gVauifpFFM7VJ2_umBUF-11" target="_ZzVW3U5dQhS0mA4fsWM-3">
          <mxGeometry relative="1" as="geometry" />
        </mxCell>
        <mxCell id="gVauifpFFM7VJ2_umBUF-11" value="&lt;b&gt;&lt;i&gt;Create New Template&lt;/i&gt;&lt;/b&gt;" style="rounded=1;whiteSpace=wrap;html=1;shadow=1;" parent="1" vertex="1">
          <mxGeometry x="62" y="247" width="135" height="60" as="geometry" />
        </mxCell>
        <mxCell id="gVauifpFFM7VJ2_umBUF-12" style="edgeStyle=orthogonalEdgeStyle;rounded=0;orthogonalLoop=1;jettySize=auto;html=1;exitX=0.5;exitY=1;exitDx=0;exitDy=0;entryX=0.5;entryY=0;entryDx=0;entryDy=0;shadow=1;" parent="1" source="gVauifpFFM7VJ2_umBUF-13" target="gVauifpFFM7VJ2_umBUF-30" edge="1">
          <mxGeometry relative="1" as="geometry" />
        </mxCell>
        <mxCell id="gVauifpFFM7VJ2_umBUF-13" value="&lt;b&gt;&lt;i&gt;Message&lt;/i&gt;&lt;/b&gt;" style="rounded=1;whiteSpace=wrap;html=1;shadow=1;" parent="1" vertex="1">
          <mxGeometry x="607" y="377" width="120" height="60" as="geometry" />
        </mxCell>
        <mxCell id="gVauifpFFM7VJ2_umBUF-14" style="edgeStyle=orthogonalEdgeStyle;rounded=0;orthogonalLoop=1;jettySize=auto;html=1;exitX=0;exitY=0.5;exitDx=0;exitDy=0;entryX=1;entryY=0.5;entryDx=0;entryDy=0;shadow=1;" parent="1" source="gVauifpFFM7VJ2_umBUF-15" target="gVauifpFFM7VJ2_umBUF-13" edge="1">
          <mxGeometry relative="1" as="geometry" />
        </mxCell>
        <mxCell id="gVauifpFFM7VJ2_umBUF-15" value="&lt;b&gt;&lt;i&gt;Header&lt;/i&gt;&lt;/b&gt;" style="rounded=1;whiteSpace=wrap;html=1;shadow=1;" parent="1" vertex="1">
          <mxGeometry x="942" y="237" width="120" height="60" as="geometry" />
        </mxCell>
        <mxCell id="gVauifpFFM7VJ2_umBUF-16" style="edgeStyle=orthogonalEdgeStyle;rounded=0;orthogonalLoop=1;jettySize=auto;html=1;exitX=0;exitY=0.5;exitDx=0;exitDy=0;entryX=1;entryY=0.5;entryDx=0;entryDy=0;shadow=1;" parent="1" source="gVauifpFFM7VJ2_umBUF-17" target="gVauifpFFM7VJ2_umBUF-15" edge="1">
          <mxGeometry relative="1" as="geometry" />
        </mxCell>
        <mxCell id="gVauifpFFM7VJ2_umBUF-17" value="&lt;p style=&quot;margin:0px;margin-top:4px;text-align:center;&quot;&gt;&lt;b&gt;Header Type&lt;/b&gt;&lt;/p&gt;&lt;hr size=&quot;1&quot; style=&quot;border-style:solid;&quot;&gt;&lt;p style=&quot;margin:0px;margin-left:4px;&quot;&gt;+ Format: string = &quot;TEXT&quot;/&quot;MEDIA&quot;&lt;br&gt;+ Size: Int&lt;/p&gt;&lt;p style=&quot;margin:0px;margin-left:4px;&quot;&gt;&lt;br&gt;&lt;/p&gt;" style="verticalAlign=top;align=left;overflow=fill;html=1;whiteSpace=wrap;shadow=1;" parent="1" vertex="1">
          <mxGeometry x="1163" y="232" width="197" height="68" as="geometry" />
        </mxCell>
        <mxCell id="gVauifpFFM7VJ2_umBUF-18" style="edgeStyle=orthogonalEdgeStyle;rounded=0;orthogonalLoop=1;jettySize=auto;html=1;exitX=0;exitY=0.5;exitDx=0;exitDy=0;entryX=1;entryY=0.5;entryDx=0;entryDy=0;shadow=1;" parent="1" source="gVauifpFFM7VJ2_umBUF-19" target="gVauifpFFM7VJ2_umBUF-17" edge="1">
          <mxGeometry relative="1" as="geometry" />
        </mxCell>
        <mxCell id="gVauifpFFM7VJ2_umBUF-19" value="&lt;p style=&quot;margin:0px;margin-top:4px;text-align:center;&quot;&gt;&lt;b&gt;Text&lt;/b&gt;&lt;/p&gt;&lt;hr size=&quot;1&quot; style=&quot;border-style:solid;&quot;&gt;&lt;p style=&quot;margin:0px;margin-left:4px;&quot;&gt;+ Format: string&lt;br&gt;+ Size: Int&lt;/p&gt;&lt;p style=&quot;margin:0px;margin-left:4px;&quot;&gt;&lt;br&gt;&lt;/p&gt;" style="verticalAlign=top;align=left;overflow=fill;html=1;whiteSpace=wrap;shadow=1;" parent="1" vertex="1">
          <mxGeometry x="1473" y="166" width="190" height="70" as="geometry" />
        </mxCell>
        <mxCell id="gVauifpFFM7VJ2_umBUF-20" style="edgeStyle=orthogonalEdgeStyle;rounded=0;orthogonalLoop=1;jettySize=auto;html=1;exitX=0;exitY=0.5;exitDx=0;exitDy=0;entryX=1;entryY=0.5;entryDx=0;entryDy=0;shadow=1;" parent="1" source="gVauifpFFM7VJ2_umBUF-21" target="gVauifpFFM7VJ2_umBUF-17" edge="1">
          <mxGeometry relative="1" as="geometry" />
        </mxCell>
        <mxCell id="gVauifpFFM7VJ2_umBUF-21" value="&lt;p style=&quot;margin:0px;margin-top:4px;text-align:center;&quot;&gt;&lt;b&gt;Media&lt;/b&gt;&lt;/p&gt;&lt;hr size=&quot;1&quot; style=&quot;border-style:solid;&quot;&gt;&lt;p style=&quot;margin:0px;margin-left:4px;&quot;&gt;+&amp;nbsp; Format: binary_code&lt;br&gt;+&amp;nbsp; Size_in_bytes: float&lt;/p&gt;&lt;p style=&quot;margin:0px;margin-left:4px;&quot;&gt;&lt;br&gt;&lt;/p&gt;" style="verticalAlign=top;align=left;overflow=fill;html=1;whiteSpace=wrap;shadow=1;" parent="1" vertex="1">
          <mxGeometry x="1473" y="294" width="190" height="70" as="geometry" />
        </mxCell>
        <mxCell id="gVauifpFFM7VJ2_umBUF-22" value="&lt;b&gt;&lt;i&gt;Option 2&lt;/i&gt;&lt;/b&gt;" style="text;html=1;align=center;verticalAlign=middle;resizable=0;points=[];autosize=1;strokeColor=none;fillColor=none;shadow=1;" parent="1" vertex="1">
          <mxGeometry x="487" y="245" width="70" height="30" as="geometry" />
        </mxCell>
        <mxCell id="gVauifpFFM7VJ2_umBUF-23" value="&lt;b&gt;&lt;i&gt;Option 1&lt;/i&gt;&lt;/b&gt;" style="text;html=1;align=center;verticalAlign=middle;resizable=0;points=[];autosize=1;strokeColor=none;fillColor=none;shadow=1;" parent="1" vertex="1">
          <mxGeometry x="257" y="245" width="70" height="30" as="geometry" />
        </mxCell>
        <mxCell id="gVauifpFFM7VJ2_umBUF-24" style="edgeStyle=orthogonalEdgeStyle;rounded=0;orthogonalLoop=1;jettySize=auto;html=1;exitX=0;exitY=0.5;exitDx=0;exitDy=0;entryX=1;entryY=0.5;entryDx=0;entryDy=0;shadow=1;" parent="1" source="gVauifpFFM7VJ2_umBUF-25" target="gVauifpFFM7VJ2_umBUF-27" edge="1">
          <mxGeometry relative="1" as="geometry" />
        </mxCell>
        <mxCell id="gVauifpFFM7VJ2_umBUF-25" value="&lt;p style=&quot;margin:0px;margin-top:4px;text-align:center;&quot;&gt;&lt;b&gt;Body Type&lt;/b&gt;&lt;/p&gt;&lt;hr size=&quot;1&quot; style=&quot;border-style:solid;&quot;&gt;&lt;p style=&quot;margin:0px;margin-left:4px;&quot;&gt;+ Format: string = &quot;TEXT&quot;&lt;br&gt;+ Size: Int&lt;/p&gt;&lt;p style=&quot;margin:0px;margin-left:4px;&quot;&gt;&lt;br&gt;&lt;/p&gt;" style="verticalAlign=top;align=left;overflow=fill;html=1;whiteSpace=wrap;shadow=1;" parent="1" vertex="1">
          <mxGeometry x="1163" y="372" width="190" height="70" as="geometry" />
        </mxCell>
        <mxCell id="gVauifpFFM7VJ2_umBUF-26" style="edgeStyle=orthogonalEdgeStyle;rounded=0;orthogonalLoop=1;jettySize=auto;html=1;exitX=0;exitY=0.5;exitDx=0;exitDy=0;entryX=1;entryY=0.5;entryDx=0;entryDy=0;shadow=1;" parent="1" source="gVauifpFFM7VJ2_umBUF-27" target="gVauifpFFM7VJ2_umBUF-13" edge="1">
          <mxGeometry relative="1" as="geometry" />
        </mxCell>
        <mxCell id="gVauifpFFM7VJ2_umBUF-27" value="&lt;b&gt;&lt;i&gt;Body&lt;/i&gt;&lt;/b&gt;" style="rounded=1;whiteSpace=wrap;html=1;shadow=1;" parent="1" vertex="1">
          <mxGeometry x="942" y="377" width="120" height="60" as="geometry" />
        </mxCell>
        <mxCell id="gVauifpFFM7VJ2_umBUF-28" value="&lt;b&gt;&lt;i&gt;Stop&lt;/i&gt;&lt;/b&gt;" style="ellipse;whiteSpace=wrap;html=1;aspect=fixed;shadow=1;" parent="1" vertex="1">
          <mxGeometry x="372" y="1001" width="60" height="60" as="geometry" />
        </mxCell>
        <mxCell id="gVauifpFFM7VJ2_umBUF-29" style="edgeStyle=orthogonalEdgeStyle;rounded=0;orthogonalLoop=1;jettySize=auto;html=1;exitX=0.5;exitY=1;exitDx=0;exitDy=0;entryX=0.5;entryY=0;entryDx=0;entryDy=0;shadow=1;" parent="1" source="gVauifpFFM7VJ2_umBUF-30" target="gVauifpFFM7VJ2_umBUF-39" edge="1">
          <mxGeometry relative="1" as="geometry" />
        </mxCell>
        <mxCell id="gVauifpFFM7VJ2_umBUF-30" value="&lt;b&gt;&lt;i&gt;Preview Message&lt;/i&gt;&lt;/b&gt;" style="rounded=1;whiteSpace=wrap;html=1;shadow=1;" parent="1" vertex="1">
          <mxGeometry x="607" y="507" width="120" height="60" as="geometry" />
        </mxCell>
        <mxCell id="gVauifpFFM7VJ2_umBUF-31" style="edgeStyle=orthogonalEdgeStyle;rounded=0;orthogonalLoop=1;jettySize=auto;html=1;exitX=0.5;exitY=1;exitDx=0;exitDy=0;entryX=0.5;entryY=0;entryDx=0;entryDy=0;shadow=1;" parent="1" source="gVauifpFFM7VJ2_umBUF-32" target="gVauifpFFM7VJ2_umBUF-28" edge="1">
          <mxGeometry relative="1" as="geometry" />
        </mxCell>
        <mxCell id="gVauifpFFM7VJ2_umBUF-32" value="&lt;b&gt;&lt;i&gt;send message to user&lt;/i&gt;&lt;/b&gt;" style="rounded=1;whiteSpace=wrap;html=1;shadow=1;" parent="1" vertex="1">
          <mxGeometry x="342" y="881" width="120" height="60" as="geometry" />
        </mxCell>
        <mxCell id="gVauifpFFM7VJ2_umBUF-33" style="edgeStyle=orthogonalEdgeStyle;rounded=0;orthogonalLoop=1;jettySize=auto;html=1;exitX=0;exitY=0.5;exitDx=0;exitDy=0;entryX=1;entryY=0.5;entryDx=0;entryDy=0;shadow=1;" parent="1" source="gVauifpFFM7VJ2_umBUF-34" target="gVauifpFFM7VJ2_umBUF-13" edge="1">
          <mxGeometry relative="1" as="geometry" />
        </mxCell>
        <mxCell id="gVauifpFFM7VJ2_umBUF-34" value="&lt;b&gt;&lt;i&gt;Footer&lt;br&gt;(optional)&lt;/i&gt;&lt;/b&gt;" style="rounded=1;whiteSpace=wrap;html=1;shadow=1;" parent="1" vertex="1">
          <mxGeometry x="942" y="517" width="120" height="60" as="geometry" />
        </mxCell>
        <mxCell id="gVauifpFFM7VJ2_umBUF-35" style="edgeStyle=orthogonalEdgeStyle;rounded=0;orthogonalLoop=1;jettySize=auto;html=1;exitX=0;exitY=0.5;exitDx=0;exitDy=0;entryX=1;entryY=0.5;entryDx=0;entryDy=0;shadow=1;" parent="1" source="gVauifpFFM7VJ2_umBUF-36" target="gVauifpFFM7VJ2_umBUF-34" edge="1">
          <mxGeometry relative="1" as="geometry" />
        </mxCell>
        <mxCell id="gVauifpFFM7VJ2_umBUF-36" value="&lt;p style=&quot;margin:0px;margin-top:4px;text-align:center;&quot;&gt;&lt;b&gt;Footer Type&lt;/b&gt;&lt;/p&gt;&lt;hr size=&quot;1&quot; style=&quot;border-style:solid;&quot;&gt;&lt;p style=&quot;margin:0px;margin-left:4px;&quot;&gt;+ Format: string = &quot;TEXT&quot;&lt;br&gt;+ Size: Int&lt;/p&gt;&lt;p style=&quot;margin:0px;margin-left:4px;&quot;&gt;&lt;br&gt;&lt;/p&gt;" style="verticalAlign=top;align=left;overflow=fill;html=1;whiteSpace=wrap;shadow=1;" parent="1" vertex="1">
          <mxGeometry x="1163" y="512" width="190" height="70" as="geometry" />
        </mxCell>
        <mxCell id="gVauifpFFM7VJ2_umBUF-37" style="edgeStyle=orthogonalEdgeStyle;rounded=0;orthogonalLoop=1;jettySize=auto;html=1;exitX=0;exitY=0.5;exitDx=0;exitDy=0;entryX=0;entryY=0.5;entryDx=0;entryDy=0;shadow=1;" parent="1" source="gVauifpFFM7VJ2_umBUF-39" target="gVauifpFFM7VJ2_umBUF-13" edge="1">
          <mxGeometry relative="1" as="geometry">
            <Array as="points">
              <mxPoint x="522" y="681" />
              <mxPoint x="522" y="407" />
            </Array>
          </mxGeometry>
        </mxCell>
        <mxCell id="P7eeOlOcxfCD9pJ1Drxv-2" style="edgeStyle=orthogonalEdgeStyle;rounded=0;orthogonalLoop=1;jettySize=auto;html=1;exitX=0.5;exitY=1;exitDx=0;exitDy=0;shadow=1;" edge="1" parent="1" source="gVauifpFFM7VJ2_umBUF-39" target="P7eeOlOcxfCD9pJ1Drxv-1">
          <mxGeometry relative="1" as="geometry" />
        </mxCell>
        <mxCell id="gVauifpFFM7VJ2_umBUF-39" value="&lt;b&gt;&lt;i&gt;Confirmation&lt;/i&gt;&lt;/b&gt;" style="rhombus;whiteSpace=wrap;html=1;shadow=1;" parent="1" vertex="1">
          <mxGeometry x="617" y="631" width="100" height="100" as="geometry" />
        </mxCell>
        <mxCell id="gVauifpFFM7VJ2_umBUF-40" value="&lt;b&gt;&lt;i&gt;NO&lt;/i&gt;&lt;/b&gt;" style="text;html=1;align=center;verticalAlign=middle;resizable=0;points=[];autosize=1;strokeColor=none;fillColor=none;shadow=1;" parent="1" vertex="1">
          <mxGeometry x="562" y="629" width="40" height="30" as="geometry" />
        </mxCell>
        <mxCell id="gVauifpFFM7VJ2_umBUF-41" value="&lt;b&gt;&lt;i&gt;YES&lt;/i&gt;&lt;/b&gt;" style="text;html=1;align=center;verticalAlign=middle;resizable=0;points=[];autosize=1;strokeColor=none;fillColor=none;shadow=1;" parent="1" vertex="1">
          <mxGeometry x="617" y="740" width="50" height="30" as="geometry" />
        </mxCell>
        <mxCell id="P7eeOlOcxfCD9pJ1Drxv-3" style="edgeStyle=orthogonalEdgeStyle;rounded=0;orthogonalLoop=1;jettySize=auto;html=1;exitX=0.5;exitY=1;exitDx=0;exitDy=0;entryX=1;entryY=0.5;entryDx=0;entryDy=0;shadow=1;" edge="1" parent="1" source="P7eeOlOcxfCD9pJ1Drxv-1" target="gVauifpFFM7VJ2_umBUF-32">
          <mxGeometry relative="1" as="geometry" />
        </mxCell>
        <mxCell id="P7eeOlOcxfCD9pJ1Drxv-1" value="&lt;b&gt;&lt;i&gt;Recipient&#39;s Phone number&lt;br&gt;(Approved)&lt;/i&gt;&lt;/b&gt;" style="rounded=1;whiteSpace=wrap;html=1;shadow=1;" vertex="1" parent="1">
          <mxGeometry x="607" y="800" width="120" height="60" as="geometry" />
        </mxCell>
        <mxCell id="_ZzVW3U5dQhS0mA4fsWM-2" style="edgeStyle=orthogonalEdgeStyle;rounded=0;orthogonalLoop=1;jettySize=auto;html=1;exitX=0.5;exitY=1;exitDx=0;exitDy=0;shadow=1;" edge="1" parent="1" source="_ZzVW3U5dQhS0mA4fsWM-3" target="_ZzVW3U5dQhS0mA4fsWM-5">
          <mxGeometry relative="1" as="geometry" />
        </mxCell>
        <mxCell id="_ZzVW3U5dQhS0mA4fsWM-3" value="&lt;b&gt;&lt;i&gt;Template Components&lt;/i&gt;&lt;/b&gt;" style="rounded=1;whiteSpace=wrap;html=1;shadow=1;" vertex="1" parent="1">
          <mxGeometry x="62" y="420" width="135" height="60" as="geometry" />
        </mxCell>
        <mxCell id="_ZzVW3U5dQhS0mA4fsWM-4" style="edgeStyle=orthogonalEdgeStyle;rounded=0;orthogonalLoop=1;jettySize=auto;html=1;exitX=0.5;exitY=1;exitDx=0;exitDy=0;shadow=1;" edge="1" parent="1" source="_ZzVW3U5dQhS0mA4fsWM-5" target="_ZzVW3U5dQhS0mA4fsWM-7">
          <mxGeometry relative="1" as="geometry" />
        </mxCell>
        <mxCell id="_ZzVW3U5dQhS0mA4fsWM-5" value="&lt;b&gt;&lt;i&gt;Preview Template&lt;/i&gt;&lt;/b&gt;" style="rounded=1;whiteSpace=wrap;html=1;shadow=1;" vertex="1" parent="1">
          <mxGeometry x="62" y="563" width="135" height="60" as="geometry" />
        </mxCell>
        <mxCell id="_ZzVW3U5dQhS0mA4fsWM-20" style="edgeStyle=orthogonalEdgeStyle;rounded=0;orthogonalLoop=1;jettySize=auto;html=1;exitX=0.5;exitY=1;exitDx=0;exitDy=0;entryX=0;entryY=0.5;entryDx=0;entryDy=0;shadow=1;" edge="1" parent="1" source="_ZzVW3U5dQhS0mA4fsWM-7" target="gVauifpFFM7VJ2_umBUF-28">
          <mxGeometry relative="1" as="geometry" />
        </mxCell>
        <mxCell id="_ZzVW3U5dQhS0mA4fsWM-7" value="&lt;b&gt;&lt;i&gt;Response&lt;/i&gt;&lt;/b&gt;" style="rounded=1;whiteSpace=wrap;html=1;shadow=1;" vertex="1" parent="1">
          <mxGeometry x="62" y="710" width="135" height="60" as="geometry" />
        </mxCell>
        <mxCell id="_ZzVW3U5dQhS0mA4fsWM-8" style="edgeStyle=orthogonalEdgeStyle;rounded=0;orthogonalLoop=1;jettySize=auto;html=1;exitX=1;exitY=0.5;exitDx=0;exitDy=0;entryX=0;entryY=0.5;entryDx=0;entryDy=0;shadow=1;" edge="1" parent="1" source="_ZzVW3U5dQhS0mA4fsWM-9" target="_ZzVW3U5dQhS0mA4fsWM-3">
          <mxGeometry relative="1" as="geometry" />
        </mxCell>
        <mxCell id="_ZzVW3U5dQhS0mA4fsWM-9" value="&lt;b&gt;&lt;i&gt;Header Component&lt;/i&gt;&lt;/b&gt;" style="rounded=1;whiteSpace=wrap;html=1;shadow=1;" vertex="1" parent="1">
          <mxGeometry x="-212" y="297" width="135" height="60" as="geometry" />
        </mxCell>
        <mxCell id="_ZzVW3U5dQhS0mA4fsWM-10" style="edgeStyle=orthogonalEdgeStyle;rounded=0;orthogonalLoop=1;jettySize=auto;html=1;exitX=1;exitY=0.5;exitDx=0;exitDy=0;entryX=0;entryY=0.5;entryDx=0;entryDy=0;shadow=1;" edge="1" parent="1" source="_ZzVW3U5dQhS0mA4fsWM-11" target="_ZzVW3U5dQhS0mA4fsWM-3">
          <mxGeometry relative="1" as="geometry" />
        </mxCell>
        <mxCell id="_ZzVW3U5dQhS0mA4fsWM-11" value="&lt;b&gt;&lt;i&gt;Body Component&lt;/i&gt;&lt;/b&gt;" style="rounded=1;whiteSpace=wrap;html=1;shadow=1;" vertex="1" parent="1">
          <mxGeometry x="-212" y="420" width="135" height="60" as="geometry" />
        </mxCell>
        <mxCell id="_ZzVW3U5dQhS0mA4fsWM-12" style="edgeStyle=orthogonalEdgeStyle;rounded=0;orthogonalLoop=1;jettySize=auto;html=1;exitX=1;exitY=0.5;exitDx=0;exitDy=0;entryX=0;entryY=0.5;entryDx=0;entryDy=0;shadow=1;" edge="1" parent="1" source="_ZzVW3U5dQhS0mA4fsWM-13" target="_ZzVW3U5dQhS0mA4fsWM-3">
          <mxGeometry relative="1" as="geometry" />
        </mxCell>
        <mxCell id="_ZzVW3U5dQhS0mA4fsWM-13" value="&lt;b&gt;&lt;i&gt;Footer Component&lt;br&gt;(Optional)&lt;/i&gt;&lt;/b&gt;" style="rounded=1;whiteSpace=wrap;html=1;shadow=1;" vertex="1" parent="1">
          <mxGeometry x="-212" y="547" width="135" height="60" as="geometry" />
        </mxCell>
        <mxCell id="_ZzVW3U5dQhS0mA4fsWM-14" style="edgeStyle=orthogonalEdgeStyle;rounded=0;orthogonalLoop=1;jettySize=auto;html=1;exitX=1;exitY=0.5;exitDx=0;exitDy=0;entryX=0;entryY=0.5;entryDx=0;entryDy=0;shadow=1;" edge="1" parent="1" source="_ZzVW3U5dQhS0mA4fsWM-15" target="_ZzVW3U5dQhS0mA4fsWM-9">
          <mxGeometry relative="1" as="geometry" />
        </mxCell>
        <mxCell id="_ZzVW3U5dQhS0mA4fsWM-15" value="&lt;p style=&quot;margin:0px;margin-top:4px;text-align:center;&quot;&gt;&lt;b&gt;Header Type&lt;/b&gt;&lt;/p&gt;&lt;hr size=&quot;1&quot; style=&quot;border-style:solid;&quot;&gt;&lt;p style=&quot;margin:0px;margin-left:4px;&quot;&gt;+ Format: string = &quot;MEDIA&quot;&lt;br&gt;+ Size: Int&lt;/p&gt;&lt;p style=&quot;margin:0px;margin-left:4px;&quot;&gt;&lt;br&gt;&lt;/p&gt;" style="verticalAlign=top;align=left;overflow=fill;html=1;whiteSpace=wrap;shadow=1;" vertex="1" parent="1">
          <mxGeometry x="-482" y="292" width="190" height="70" as="geometry" />
        </mxCell>
        <mxCell id="_ZzVW3U5dQhS0mA4fsWM-16" style="edgeStyle=orthogonalEdgeStyle;rounded=0;orthogonalLoop=1;jettySize=auto;html=1;exitX=1;exitY=0.5;exitDx=0;exitDy=0;entryX=0;entryY=0.5;entryDx=0;entryDy=0;shadow=1;" edge="1" parent="1" source="_ZzVW3U5dQhS0mA4fsWM-17" target="_ZzVW3U5dQhS0mA4fsWM-11">
          <mxGeometry relative="1" as="geometry" />
        </mxCell>
        <mxCell id="_ZzVW3U5dQhS0mA4fsWM-17" value="&lt;p style=&quot;margin:0px;margin-top:4px;text-align:center;&quot;&gt;&lt;b&gt;Body Type&lt;/b&gt;&lt;/p&gt;&lt;hr size=&quot;1&quot; style=&quot;border-style:solid;&quot;&gt;&lt;p style=&quot;margin:0px;margin-left:4px;&quot;&gt;+ Format: string = &quot;TEXT&quot;&lt;br&gt;+ Size: Int&lt;/p&gt;&lt;p style=&quot;margin:0px;margin-left:4px;&quot;&gt;&lt;br&gt;&lt;/p&gt;" style="verticalAlign=top;align=left;overflow=fill;html=1;whiteSpace=wrap;shadow=1;" vertex="1" parent="1">
          <mxGeometry x="-482" y="415" width="190" height="70" as="geometry" />
        </mxCell>
        <mxCell id="_ZzVW3U5dQhS0mA4fsWM-18" style="edgeStyle=orthogonalEdgeStyle;rounded=0;orthogonalLoop=1;jettySize=auto;html=1;exitX=1;exitY=0.5;exitDx=0;exitDy=0;entryX=0;entryY=0.5;entryDx=0;entryDy=0;shadow=1;" edge="1" parent="1" source="_ZzVW3U5dQhS0mA4fsWM-19" target="_ZzVW3U5dQhS0mA4fsWM-13">
          <mxGeometry relative="1" as="geometry" />
        </mxCell>
        <mxCell id="_ZzVW3U5dQhS0mA4fsWM-19" value="&lt;p style=&quot;margin:0px;margin-top:4px;text-align:center;&quot;&gt;&lt;b&gt;Footer Type&lt;/b&gt;&lt;/p&gt;&lt;hr size=&quot;1&quot; style=&quot;border-style:solid;&quot;&gt;&lt;p style=&quot;margin:0px;margin-left:4px;&quot;&gt;+ Format: string = &quot;TEXT&quot;&lt;br&gt;+ Size: Int&lt;/p&gt;&lt;p style=&quot;margin:0px;margin-left:4px;&quot;&gt;&lt;br&gt;&lt;/p&gt;" style="verticalAlign=top;align=left;overflow=fill;html=1;whiteSpace=wrap;shadow=1;" vertex="1" parent="1">
          <mxGeometry x="-482" y="542" width="190" height="70" as="geometry" />
        </mxCell>
      </root>
    </mxGraphModel>
  </diagram>
  <diagram id="xxSK20-TFN2L4QAA7-1F" name="text_with_button">
    <mxGraphModel dx="2276" dy="875" grid="1" gridSize="10" guides="1" tooltips="1" connect="1" arrows="1" fold="1" page="1" pageScale="1" pageWidth="850" pageHeight="1100" math="0" shadow="0">
      <root>
        <mxCell id="0" />
        <mxCell id="1" parent="0" />
        <mxCell id="FxnneNir4Rs6beea1rty-1" value="&lt;b&gt;&lt;i&gt;Start&lt;/i&gt;&lt;/b&gt;" style="ellipse;whiteSpace=wrap;html=1;shadow=1;" parent="1" vertex="1">
          <mxGeometry x="390" y="120" width="100" height="40" as="geometry" />
        </mxCell>
        <mxCell id="FxnneNir4Rs6beea1rty-2" style="edgeStyle=orthogonalEdgeStyle;rounded=0;orthogonalLoop=1;jettySize=auto;html=1;exitX=0;exitY=0.5;exitDx=0;exitDy=0;entryX=1;entryY=0.5;entryDx=0;entryDy=0;shadow=1;" parent="1" source="FxnneNir4Rs6beea1rty-4" target="FxnneNir4Rs6beea1rty-11" edge="1">
          <mxGeometry relative="1" as="geometry" />
        </mxCell>
        <mxCell id="FxnneNir4Rs6beea1rty-3" style="edgeStyle=orthogonalEdgeStyle;rounded=0;orthogonalLoop=1;jettySize=auto;html=1;exitX=1;exitY=0.5;exitDx=0;exitDy=0;entryX=0;entryY=0.5;entryDx=0;entryDy=0;shadow=1;" parent="1" source="FxnneNir4Rs6beea1rty-4" target="FxnneNir4Rs6beea1rty-9" edge="1">
          <mxGeometry relative="1" as="geometry" />
        </mxCell>
        <mxCell id="FxnneNir4Rs6beea1rty-4" value="&lt;b&gt;&lt;i&gt;Template selection&lt;/i&gt;&lt;/b&gt;" style="rhombus;whiteSpace=wrap;html=1;shadow=1;" parent="1" vertex="1">
          <mxGeometry x="370" y="220" width="140" height="140" as="geometry" />
        </mxCell>
        <mxCell id="FxnneNir4Rs6beea1rty-5" value="&lt;b&gt;&lt;font style=&quot;font-size: 14px;&quot;&gt;UML Diagram for publishing message with text and button&lt;/font&gt;&amp;nbsp;&lt;/b&gt;" style="text;html=1;align=center;verticalAlign=middle;resizable=0;points=[];autosize=1;strokeColor=none;fillColor=none;shadow=1;" parent="1" vertex="1">
          <mxGeometry x="255" y="50" width="410" height="30" as="geometry" />
        </mxCell>
        <mxCell id="FxnneNir4Rs6beea1rty-6" value="" style="endArrow=classic;html=1;rounded=0;exitX=0.5;exitY=1;exitDx=0;exitDy=0;shadow=1;" parent="1" source="FxnneNir4Rs6beea1rty-1" target="FxnneNir4Rs6beea1rty-4" edge="1">
          <mxGeometry width="50" height="50" relative="1" as="geometry">
            <mxPoint x="550" y="260" as="sourcePoint" />
            <mxPoint x="600" y="210" as="targetPoint" />
          </mxGeometry>
        </mxCell>
        <mxCell id="FxnneNir4Rs6beea1rty-7" style="edgeStyle=orthogonalEdgeStyle;rounded=0;orthogonalLoop=1;jettySize=auto;html=1;exitX=0.5;exitY=1;exitDx=0;exitDy=0;shadow=1;" parent="1" source="FxnneNir4Rs6beea1rty-4" target="FxnneNir4Rs6beea1rty-4" edge="1">
          <mxGeometry relative="1" as="geometry" />
        </mxCell>
        <mxCell id="FxnneNir4Rs6beea1rty-8" style="edgeStyle=orthogonalEdgeStyle;rounded=0;orthogonalLoop=1;jettySize=auto;html=1;exitX=0.5;exitY=1;exitDx=0;exitDy=0;shadow=1;" parent="1" source="FxnneNir4Rs6beea1rty-9" edge="1">
          <mxGeometry relative="1" as="geometry">
            <mxPoint x="705" y="390" as="targetPoint" />
          </mxGeometry>
        </mxCell>
        <mxCell id="FxnneNir4Rs6beea1rty-9" value="&lt;b&gt;&lt;i&gt;Select template from existing template list&lt;/i&gt;&lt;/b&gt;" style="rounded=1;whiteSpace=wrap;html=1;shadow=1;glass=0;" parent="1" vertex="1">
          <mxGeometry x="640" y="255" width="130" height="70" as="geometry" />
        </mxCell>
        <mxCell id="-voEfs8YxXt__p8CRRwc-6" style="edgeStyle=orthogonalEdgeStyle;rounded=0;orthogonalLoop=1;jettySize=auto;html=1;exitX=0.5;exitY=1;exitDx=0;exitDy=0;shadow=1;" edge="1" parent="1" source="FxnneNir4Rs6beea1rty-11" target="-voEfs8YxXt__p8CRRwc-2">
          <mxGeometry relative="1" as="geometry" />
        </mxCell>
        <mxCell id="FxnneNir4Rs6beea1rty-11" value="&lt;b&gt;&lt;i&gt;Create New Template&lt;/i&gt;&lt;/b&gt;" style="rounded=1;whiteSpace=wrap;html=1;shadow=1;" parent="1" vertex="1">
          <mxGeometry x="100" y="260" width="135" height="60" as="geometry" />
        </mxCell>
        <mxCell id="FxnneNir4Rs6beea1rty-12" style="edgeStyle=orthogonalEdgeStyle;rounded=0;orthogonalLoop=1;jettySize=auto;html=1;exitX=0.5;exitY=1;exitDx=0;exitDy=0;entryX=0.5;entryY=0;entryDx=0;entryDy=0;shadow=1;" parent="1" source="FxnneNir4Rs6beea1rty-13" target="FxnneNir4Rs6beea1rty-26" edge="1">
          <mxGeometry relative="1" as="geometry" />
        </mxCell>
        <mxCell id="FxnneNir4Rs6beea1rty-13" value="&lt;b&gt;&lt;i&gt;Message&lt;/i&gt;&lt;/b&gt;" style="rounded=1;whiteSpace=wrap;html=1;shadow=1;" parent="1" vertex="1">
          <mxGeometry x="645" y="390" width="120" height="60" as="geometry" />
        </mxCell>
        <mxCell id="FxnneNir4Rs6beea1rty-14" style="edgeStyle=orthogonalEdgeStyle;rounded=0;orthogonalLoop=1;jettySize=auto;html=1;exitX=0;exitY=0.5;exitDx=0;exitDy=0;entryX=1;entryY=0.5;entryDx=0;entryDy=0;shadow=1;" parent="1" source="FxnneNir4Rs6beea1rty-15" target="FxnneNir4Rs6beea1rty-13" edge="1">
          <mxGeometry relative="1" as="geometry" />
        </mxCell>
        <mxCell id="FxnneNir4Rs6beea1rty-15" value="&lt;b&gt;&lt;i&gt;Header&lt;/i&gt;&lt;/b&gt;" style="rounded=1;whiteSpace=wrap;html=1;shadow=1;" parent="1" vertex="1">
          <mxGeometry x="980" y="250" width="120" height="60" as="geometry" />
        </mxCell>
        <mxCell id="FxnneNir4Rs6beea1rty-16" style="edgeStyle=orthogonalEdgeStyle;rounded=0;orthogonalLoop=1;jettySize=auto;html=1;exitX=0;exitY=0.5;exitDx=0;exitDy=0;entryX=1;entryY=0.5;entryDx=0;entryDy=0;shadow=1;" parent="1" source="FxnneNir4Rs6beea1rty-17" target="FxnneNir4Rs6beea1rty-15" edge="1">
          <mxGeometry relative="1" as="geometry" />
        </mxCell>
        <mxCell id="FxnneNir4Rs6beea1rty-17" value="&lt;p style=&quot;margin:0px;margin-top:4px;text-align:center;&quot;&gt;&lt;b&gt;Header Type&lt;/b&gt;&lt;/p&gt;&lt;hr size=&quot;1&quot; style=&quot;border-style:solid;&quot;&gt;&lt;p style=&quot;margin:0px;margin-left:4px;&quot;&gt;+ Format: string = &quot;TEXT&quot;&lt;br&gt;+ Size: Int&lt;/p&gt;&lt;p style=&quot;margin:0px;margin-left:4px;&quot;&gt;&lt;br&gt;&lt;/p&gt;" style="verticalAlign=top;align=left;overflow=fill;html=1;whiteSpace=wrap;shadow=1;" parent="1" vertex="1">
          <mxGeometry x="1201" y="245" width="190" height="70" as="geometry" />
        </mxCell>
        <mxCell id="FxnneNir4Rs6beea1rty-18" value="&lt;b&gt;&lt;i&gt;Option 2&lt;/i&gt;&lt;/b&gt;" style="text;html=1;align=center;verticalAlign=middle;resizable=0;points=[];autosize=1;strokeColor=none;fillColor=none;shadow=1;" parent="1" vertex="1">
          <mxGeometry x="525" y="258" width="70" height="30" as="geometry" />
        </mxCell>
        <mxCell id="FxnneNir4Rs6beea1rty-19" value="&lt;b&gt;&lt;i&gt;Option 1&lt;/i&gt;&lt;/b&gt;" style="text;html=1;align=center;verticalAlign=middle;resizable=0;points=[];autosize=1;strokeColor=none;fillColor=none;shadow=1;" parent="1" vertex="1">
          <mxGeometry x="295" y="258" width="70" height="30" as="geometry" />
        </mxCell>
        <mxCell id="FxnneNir4Rs6beea1rty-20" style="edgeStyle=orthogonalEdgeStyle;rounded=0;orthogonalLoop=1;jettySize=auto;html=1;exitX=0;exitY=0.5;exitDx=0;exitDy=0;entryX=1;entryY=0.5;entryDx=0;entryDy=0;shadow=1;" parent="1" source="FxnneNir4Rs6beea1rty-21" target="FxnneNir4Rs6beea1rty-23" edge="1">
          <mxGeometry relative="1" as="geometry" />
        </mxCell>
        <mxCell id="FxnneNir4Rs6beea1rty-21" value="&lt;p style=&quot;margin:0px;margin-top:4px;text-align:center;&quot;&gt;&lt;b&gt;Body Type&lt;/b&gt;&lt;/p&gt;&lt;hr size=&quot;1&quot; style=&quot;border-style:solid;&quot;&gt;&lt;p style=&quot;margin:0px;margin-left:4px;&quot;&gt;+ Format: string = &quot;TEXT&quot;&lt;br&gt;+ Size: Int&lt;/p&gt;&lt;p style=&quot;margin:0px;margin-left:4px;&quot;&gt;&lt;br&gt;&lt;/p&gt;" style="verticalAlign=top;align=left;overflow=fill;html=1;whiteSpace=wrap;shadow=1;" parent="1" vertex="1">
          <mxGeometry x="1201" y="385" width="190" height="70" as="geometry" />
        </mxCell>
        <mxCell id="FxnneNir4Rs6beea1rty-22" style="edgeStyle=orthogonalEdgeStyle;rounded=0;orthogonalLoop=1;jettySize=auto;html=1;exitX=0;exitY=0.5;exitDx=0;exitDy=0;entryX=1;entryY=0.5;entryDx=0;entryDy=0;shadow=1;" parent="1" source="FxnneNir4Rs6beea1rty-23" target="FxnneNir4Rs6beea1rty-13" edge="1">
          <mxGeometry relative="1" as="geometry" />
        </mxCell>
        <mxCell id="FxnneNir4Rs6beea1rty-23" value="&lt;b&gt;&lt;i&gt;Body&lt;/i&gt;&lt;/b&gt;" style="rounded=1;whiteSpace=wrap;html=1;shadow=1;" parent="1" vertex="1">
          <mxGeometry x="980" y="390" width="120" height="60" as="geometry" />
        </mxCell>
        <mxCell id="FxnneNir4Rs6beea1rty-24" value="&lt;b&gt;&lt;i&gt;Stop&lt;/i&gt;&lt;/b&gt;" style="ellipse;whiteSpace=wrap;html=1;aspect=fixed;shadow=1;" parent="1" vertex="1">
          <mxGeometry x="410" y="1075" width="60" height="60" as="geometry" />
        </mxCell>
        <mxCell id="FxnneNir4Rs6beea1rty-25" style="edgeStyle=orthogonalEdgeStyle;rounded=0;orthogonalLoop=1;jettySize=auto;html=1;exitX=0.5;exitY=1;exitDx=0;exitDy=0;entryX=0.5;entryY=0;entryDx=0;entryDy=0;shadow=1;" parent="1" source="FxnneNir4Rs6beea1rty-26" target="FxnneNir4Rs6beea1rty-35" edge="1">
          <mxGeometry relative="1" as="geometry" />
        </mxCell>
        <mxCell id="FxnneNir4Rs6beea1rty-26" value="&lt;b&gt;&lt;i&gt;Preview Message&lt;/i&gt;&lt;/b&gt;" style="rounded=1;whiteSpace=wrap;html=1;shadow=1;" parent="1" vertex="1">
          <mxGeometry x="645" y="520" width="120" height="60" as="geometry" />
        </mxCell>
        <mxCell id="FxnneNir4Rs6beea1rty-27" style="edgeStyle=orthogonalEdgeStyle;rounded=0;orthogonalLoop=1;jettySize=auto;html=1;exitX=0.5;exitY=1;exitDx=0;exitDy=0;entryX=0.5;entryY=0;entryDx=0;entryDy=0;shadow=1;" parent="1" source="FxnneNir4Rs6beea1rty-28" target="FxnneNir4Rs6beea1rty-24" edge="1">
          <mxGeometry relative="1" as="geometry" />
        </mxCell>
        <mxCell id="FxnneNir4Rs6beea1rty-28" value="&lt;b&gt;&lt;i&gt;send message to user&lt;/i&gt;&lt;/b&gt;" style="rounded=1;whiteSpace=wrap;html=1;shadow=1;" parent="1" vertex="1">
          <mxGeometry x="380" y="920" width="120" height="60" as="geometry" />
        </mxCell>
        <mxCell id="FxnneNir4Rs6beea1rty-29" style="edgeStyle=orthogonalEdgeStyle;rounded=0;orthogonalLoop=1;jettySize=auto;html=1;exitX=0;exitY=0.5;exitDx=0;exitDy=0;entryX=1;entryY=0.5;entryDx=0;entryDy=0;shadow=1;" parent="1" source="FxnneNir4Rs6beea1rty-30" target="FxnneNir4Rs6beea1rty-13" edge="1">
          <mxGeometry relative="1" as="geometry" />
        </mxCell>
        <mxCell id="FxnneNir4Rs6beea1rty-30" value="&lt;b&gt;&lt;i&gt;Footer&lt;br&gt;(optional)&lt;/i&gt;&lt;/b&gt;" style="rounded=1;whiteSpace=wrap;html=1;shadow=1;" parent="1" vertex="1">
          <mxGeometry x="980" y="530" width="120" height="60" as="geometry" />
        </mxCell>
        <mxCell id="FxnneNir4Rs6beea1rty-31" style="edgeStyle=orthogonalEdgeStyle;rounded=0;orthogonalLoop=1;jettySize=auto;html=1;exitX=0;exitY=0.5;exitDx=0;exitDy=0;entryX=1;entryY=0.5;entryDx=0;entryDy=0;shadow=1;" parent="1" source="FxnneNir4Rs6beea1rty-32" target="FxnneNir4Rs6beea1rty-30" edge="1">
          <mxGeometry relative="1" as="geometry" />
        </mxCell>
        <mxCell id="FxnneNir4Rs6beea1rty-32" value="&lt;p style=&quot;margin:0px;margin-top:4px;text-align:center;&quot;&gt;&lt;b&gt;Footer Type&lt;/b&gt;&lt;/p&gt;&lt;hr size=&quot;1&quot; style=&quot;border-style:solid;&quot;&gt;&lt;p style=&quot;margin:0px;margin-left:4px;&quot;&gt;+ Format: string = &quot;TEXT&quot;&lt;br&gt;+ Size: Int&lt;/p&gt;&lt;p style=&quot;margin:0px;margin-left:4px;&quot;&gt;&lt;br&gt;&lt;/p&gt;" style="verticalAlign=top;align=left;overflow=fill;html=1;whiteSpace=wrap;shadow=1;" parent="1" vertex="1">
          <mxGeometry x="1201" y="525" width="190" height="70" as="geometry" />
        </mxCell>
        <mxCell id="FxnneNir4Rs6beea1rty-33" style="edgeStyle=orthogonalEdgeStyle;rounded=0;orthogonalLoop=1;jettySize=auto;html=1;exitX=0;exitY=0.5;exitDx=0;exitDy=0;entryX=0;entryY=0.5;entryDx=0;entryDy=0;shadow=1;" parent="1" source="FxnneNir4Rs6beea1rty-35" target="FxnneNir4Rs6beea1rty-13" edge="1">
          <mxGeometry relative="1" as="geometry">
            <Array as="points">
              <mxPoint x="560" y="694" />
              <mxPoint x="560" y="420" />
            </Array>
          </mxGeometry>
        </mxCell>
        <mxCell id="hKDGIKIXJdd33qQHllWN-2" style="edgeStyle=orthogonalEdgeStyle;rounded=0;orthogonalLoop=1;jettySize=auto;html=1;exitX=0.5;exitY=1;exitDx=0;exitDy=0;shadow=1;" edge="1" parent="1" source="FxnneNir4Rs6beea1rty-35" target="hKDGIKIXJdd33qQHllWN-1">
          <mxGeometry relative="1" as="geometry" />
        </mxCell>
        <mxCell id="FxnneNir4Rs6beea1rty-35" value="&lt;b&gt;&lt;i&gt;Confirmation&lt;/i&gt;&lt;/b&gt;" style="rhombus;whiteSpace=wrap;html=1;shadow=1;" parent="1" vertex="1">
          <mxGeometry x="655" y="644" width="100" height="100" as="geometry" />
        </mxCell>
        <mxCell id="FxnneNir4Rs6beea1rty-36" value="&lt;b&gt;&lt;i&gt;NO&lt;/i&gt;&lt;/b&gt;" style="text;html=1;align=center;verticalAlign=middle;resizable=0;points=[];autosize=1;strokeColor=none;fillColor=none;shadow=1;" parent="1" vertex="1">
          <mxGeometry x="609" y="661" width="40" height="30" as="geometry" />
        </mxCell>
        <mxCell id="FxnneNir4Rs6beea1rty-37" value="&lt;b&gt;&lt;i&gt;YES&lt;/i&gt;&lt;/b&gt;" style="text;html=1;align=center;verticalAlign=middle;resizable=0;points=[];autosize=1;strokeColor=none;fillColor=none;shadow=1;" parent="1" vertex="1">
          <mxGeometry x="640" y="750" width="50" height="30" as="geometry" />
        </mxCell>
        <mxCell id="FxnneNir4Rs6beea1rty-38" style="edgeStyle=orthogonalEdgeStyle;rounded=0;orthogonalLoop=1;jettySize=auto;html=1;exitX=0;exitY=0.5;exitDx=0;exitDy=0;entryX=1;entryY=0.5;entryDx=0;entryDy=0;shadow=1;" parent="1" source="FxnneNir4Rs6beea1rty-39" target="FxnneNir4Rs6beea1rty-13" edge="1">
          <mxGeometry relative="1" as="geometry" />
        </mxCell>
        <mxCell id="FxnneNir4Rs6beea1rty-39" value="&lt;b&gt;&lt;i&gt;Buttons&lt;/i&gt;&lt;/b&gt;" style="rounded=1;whiteSpace=wrap;html=1;shadow=1;" parent="1" vertex="1">
          <mxGeometry x="980" y="700" width="120" height="60" as="geometry" />
        </mxCell>
        <mxCell id="FxnneNir4Rs6beea1rty-40" style="edgeStyle=orthogonalEdgeStyle;rounded=0;orthogonalLoop=1;jettySize=auto;html=1;exitX=0;exitY=0.5;exitDx=0;exitDy=0;shadow=1;" parent="1" source="FxnneNir4Rs6beea1rty-41" target="FxnneNir4Rs6beea1rty-39" edge="1">
          <mxGeometry relative="1" as="geometry" />
        </mxCell>
        <mxCell id="FxnneNir4Rs6beea1rty-41" value="&lt;p style=&quot;margin:0px;margin-top:4px;text-align:center;&quot;&gt;&lt;b&gt;Button Type&lt;/b&gt;&lt;/p&gt;&lt;hr size=&quot;1&quot; style=&quot;border-style:solid;&quot;&gt;&lt;p style=&quot;margin:0px;margin-left:4px;&quot;&gt;+ Format: string = &quot;TEXT&quot;&lt;br&gt;+ Size: Int&lt;/p&gt;&lt;p style=&quot;margin:0px;margin-left:4px;&quot;&gt;&lt;br&gt;&lt;/p&gt;" style="verticalAlign=top;align=left;overflow=fill;html=1;whiteSpace=wrap;shadow=1;" parent="1" vertex="1">
          <mxGeometry x="1201" y="695" width="190" height="70" as="geometry" />
        </mxCell>
        <mxCell id="FxnneNir4Rs6beea1rty-42" style="edgeStyle=orthogonalEdgeStyle;rounded=0;orthogonalLoop=1;jettySize=auto;html=1;exitX=0.5;exitY=0;exitDx=0;exitDy=0;entryX=0.5;entryY=1;entryDx=0;entryDy=0;shadow=1;" parent="1" source="FxnneNir4Rs6beea1rty-43" target="FxnneNir4Rs6beea1rty-41" edge="1">
          <mxGeometry relative="1" as="geometry" />
        </mxCell>
        <mxCell id="FxnneNir4Rs6beea1rty-43" value="&lt;p style=&quot;margin:0px;margin-top:4px;text-align:center;&quot;&gt;&lt;b&gt;url&lt;/b&gt;&lt;/p&gt;&lt;hr size=&quot;1&quot; style=&quot;border-style:solid;&quot;&gt;&lt;p style=&quot;margin:0px;margin-left:4px;&quot;&gt;+ Format: string = &quot;url link&quot;&lt;br&gt;+ Size: Int&lt;/p&gt;&lt;p style=&quot;margin:0px;margin-left:4px;&quot;&gt;&lt;br&gt;&lt;/p&gt;" style="verticalAlign=top;align=left;overflow=fill;html=1;whiteSpace=wrap;shadow=1;" parent="1" vertex="1">
          <mxGeometry x="930" y="870" width="190" height="70" as="geometry" />
        </mxCell>
        <mxCell id="FxnneNir4Rs6beea1rty-44" style="edgeStyle=orthogonalEdgeStyle;rounded=0;orthogonalLoop=1;jettySize=auto;html=1;exitX=0.5;exitY=0;exitDx=0;exitDy=0;entryX=0.5;entryY=1;entryDx=0;entryDy=0;shadow=1;" parent="1" source="FxnneNir4Rs6beea1rty-45" target="FxnneNir4Rs6beea1rty-41" edge="1">
          <mxGeometry relative="1" as="geometry" />
        </mxCell>
        <mxCell id="FxnneNir4Rs6beea1rty-45" value="&lt;p style=&quot;margin:0px;margin-top:4px;text-align:center;&quot;&gt;&lt;b&gt;phone_number&lt;/b&gt;&lt;/p&gt;&lt;hr size=&quot;1&quot; style=&quot;border-style:solid;&quot;&gt;&lt;p style=&quot;margin:0px;margin-left:4px;&quot;&gt;+ Format: string = &quot;phone number&quot;&lt;br&gt;+ Size: Int&lt;/p&gt;&lt;p style=&quot;margin:0px;margin-left:4px;&quot;&gt;&lt;br&gt;&lt;/p&gt;" style="verticalAlign=top;align=left;overflow=fill;html=1;whiteSpace=wrap;shadow=1;" parent="1" vertex="1">
          <mxGeometry x="1201" y="870" width="190" height="70" as="geometry" />
        </mxCell>
        <mxCell id="FxnneNir4Rs6beea1rty-46" style="edgeStyle=orthogonalEdgeStyle;rounded=0;orthogonalLoop=1;jettySize=auto;html=1;exitX=0.5;exitY=0;exitDx=0;exitDy=0;entryX=0.5;entryY=1;entryDx=0;entryDy=0;shadow=1;" parent="1" source="FxnneNir4Rs6beea1rty-47" target="FxnneNir4Rs6beea1rty-41" edge="1">
          <mxGeometry relative="1" as="geometry" />
        </mxCell>
        <mxCell id="FxnneNir4Rs6beea1rty-47" value="&lt;p style=&quot;margin:0px;margin-top:4px;text-align:center;&quot;&gt;&lt;b&gt;quick_reply&lt;/b&gt;&lt;/p&gt;&lt;hr size=&quot;1&quot; style=&quot;border-style:solid;&quot;&gt;&lt;p style=&quot;margin:0px;margin-left:4px;&quot;&gt;+ Format: string = &quot;options&quot;&lt;br&gt;+ Size: Int&lt;/p&gt;&lt;p style=&quot;margin:0px;margin-left:4px;&quot;&gt;&lt;br&gt;&lt;/p&gt;" style="verticalAlign=top;align=left;overflow=fill;html=1;whiteSpace=wrap;shadow=1;" parent="1" vertex="1">
          <mxGeometry x="1480" y="870" width="190" height="70" as="geometry" />
        </mxCell>
        <mxCell id="hKDGIKIXJdd33qQHllWN-3" style="edgeStyle=orthogonalEdgeStyle;rounded=0;orthogonalLoop=1;jettySize=auto;html=1;exitX=0.5;exitY=1;exitDx=0;exitDy=0;entryX=1;entryY=0.5;entryDx=0;entryDy=0;shadow=1;" edge="1" parent="1" source="hKDGIKIXJdd33qQHllWN-1" target="FxnneNir4Rs6beea1rty-28">
          <mxGeometry relative="1" as="geometry" />
        </mxCell>
        <mxCell id="hKDGIKIXJdd33qQHllWN-1" value="&lt;b&gt;&lt;i&gt;Recipient&#39;s Phone number&lt;br&gt;(Approved)&lt;/i&gt;&lt;/b&gt;" style="rounded=1;whiteSpace=wrap;html=1;shadow=1;" vertex="1" parent="1">
          <mxGeometry x="645" y="820" width="120" height="60" as="geometry" />
        </mxCell>
        <mxCell id="-voEfs8YxXt__p8CRRwc-1" style="edgeStyle=orthogonalEdgeStyle;rounded=0;orthogonalLoop=1;jettySize=auto;html=1;exitX=0.5;exitY=1;exitDx=0;exitDy=0;shadow=1;" edge="1" parent="1" source="-voEfs8YxXt__p8CRRwc-2" target="-voEfs8YxXt__p8CRRwc-4">
          <mxGeometry relative="1" as="geometry" />
        </mxCell>
        <mxCell id="-voEfs8YxXt__p8CRRwc-2" value="&lt;b&gt;&lt;i&gt;Template Components&lt;/i&gt;&lt;/b&gt;" style="rounded=1;whiteSpace=wrap;html=1;shadow=1;" vertex="1" parent="1">
          <mxGeometry x="100" y="430" width="135" height="60" as="geometry" />
        </mxCell>
        <mxCell id="-voEfs8YxXt__p8CRRwc-3" style="edgeStyle=orthogonalEdgeStyle;rounded=0;orthogonalLoop=1;jettySize=auto;html=1;exitX=0.5;exitY=1;exitDx=0;exitDy=0;shadow=1;" edge="1" parent="1" source="-voEfs8YxXt__p8CRRwc-4" target="-voEfs8YxXt__p8CRRwc-5">
          <mxGeometry relative="1" as="geometry" />
        </mxCell>
        <mxCell id="-voEfs8YxXt__p8CRRwc-4" value="&lt;b&gt;&lt;i&gt;Preview Template&lt;/i&gt;&lt;/b&gt;" style="rounded=1;whiteSpace=wrap;html=1;shadow=1;" vertex="1" parent="1">
          <mxGeometry x="100" y="583" width="135" height="60" as="geometry" />
        </mxCell>
        <mxCell id="-voEfs8YxXt__p8CRRwc-7" style="edgeStyle=orthogonalEdgeStyle;rounded=0;orthogonalLoop=1;jettySize=auto;html=1;exitX=0.5;exitY=1;exitDx=0;exitDy=0;entryX=0;entryY=0.5;entryDx=0;entryDy=0;shadow=1;" edge="1" parent="1" source="-voEfs8YxXt__p8CRRwc-5" target="FxnneNir4Rs6beea1rty-28">
          <mxGeometry relative="1" as="geometry" />
        </mxCell>
        <mxCell id="-voEfs8YxXt__p8CRRwc-5" value="&lt;b&gt;&lt;i&gt;Response&lt;/i&gt;&lt;/b&gt;" style="rounded=1;whiteSpace=wrap;html=1;shadow=1;" vertex="1" parent="1">
          <mxGeometry x="100" y="730" width="135" height="60" as="geometry" />
        </mxCell>
        <mxCell id="DYapM7OonhTBNlPCjqY9-12" style="edgeStyle=orthogonalEdgeStyle;rounded=0;orthogonalLoop=1;jettySize=auto;html=1;exitX=1;exitY=0.5;exitDx=0;exitDy=0;entryX=0;entryY=0.5;entryDx=0;entryDy=0;shadow=1;" edge="1" parent="1" source="DYapM7OonhTBNlPCjqY9-1" target="-voEfs8YxXt__p8CRRwc-2">
          <mxGeometry relative="1" as="geometry" />
        </mxCell>
        <mxCell id="DYapM7OonhTBNlPCjqY9-1" value="&lt;b&gt;&lt;i&gt;Header Component&lt;/i&gt;&lt;/b&gt;" style="rounded=1;whiteSpace=wrap;html=1;shadow=1;" vertex="1" parent="1">
          <mxGeometry x="-198" y="245" width="135" height="60" as="geometry" />
        </mxCell>
        <mxCell id="DYapM7OonhTBNlPCjqY9-11" style="edgeStyle=orthogonalEdgeStyle;rounded=0;orthogonalLoop=1;jettySize=auto;html=1;exitX=1;exitY=0.5;exitDx=0;exitDy=0;entryX=0;entryY=0.5;entryDx=0;entryDy=0;shadow=1;" edge="1" parent="1" source="DYapM7OonhTBNlPCjqY9-2" target="-voEfs8YxXt__p8CRRwc-2">
          <mxGeometry relative="1" as="geometry" />
        </mxCell>
        <mxCell id="DYapM7OonhTBNlPCjqY9-2" value="&lt;b&gt;&lt;i&gt;Body Component&lt;/i&gt;&lt;/b&gt;" style="rounded=1;whiteSpace=wrap;html=1;shadow=1;" vertex="1" parent="1">
          <mxGeometry x="-198" y="371" width="135" height="60" as="geometry" />
        </mxCell>
        <mxCell id="DYapM7OonhTBNlPCjqY9-13" style="edgeStyle=orthogonalEdgeStyle;rounded=0;orthogonalLoop=1;jettySize=auto;html=1;exitX=1;exitY=0.5;exitDx=0;exitDy=0;entryX=0;entryY=0.5;entryDx=0;entryDy=0;shadow=1;" edge="1" parent="1" source="DYapM7OonhTBNlPCjqY9-3" target="-voEfs8YxXt__p8CRRwc-2">
          <mxGeometry relative="1" as="geometry" />
        </mxCell>
        <mxCell id="DYapM7OonhTBNlPCjqY9-3" value="&lt;b&gt;&lt;i&gt;Footer Component&lt;br&gt;(Optional)&lt;/i&gt;&lt;/b&gt;" style="rounded=1;whiteSpace=wrap;html=1;shadow=1;" vertex="1" parent="1">
          <mxGeometry x="-198" y="495" width="135" height="60" as="geometry" />
        </mxCell>
        <mxCell id="DYapM7OonhTBNlPCjqY9-4" style="edgeStyle=orthogonalEdgeStyle;rounded=0;orthogonalLoop=1;jettySize=auto;html=1;exitX=1;exitY=0.5;exitDx=0;exitDy=0;entryX=0;entryY=0.5;entryDx=0;entryDy=0;shadow=1;" edge="1" parent="1" source="DYapM7OonhTBNlPCjqY9-5" target="DYapM7OonhTBNlPCjqY9-1">
          <mxGeometry relative="1" as="geometry" />
        </mxCell>
        <mxCell id="DYapM7OonhTBNlPCjqY9-5" value="&lt;p style=&quot;margin:0px;margin-top:4px;text-align:center;&quot;&gt;&lt;b&gt;Header Type&lt;/b&gt;&lt;/p&gt;&lt;hr size=&quot;1&quot; style=&quot;border-style:solid;&quot;&gt;&lt;p style=&quot;margin:0px;margin-left:4px;&quot;&gt;+ Format: string = &quot;TEXT&quot;&lt;br&gt;+ Size: Int&lt;/p&gt;&lt;p style=&quot;margin:0px;margin-left:4px;&quot;&gt;&lt;br&gt;&lt;/p&gt;" style="verticalAlign=top;align=left;overflow=fill;html=1;whiteSpace=wrap;shadow=1;" vertex="1" parent="1">
          <mxGeometry x="-468" y="240" width="190" height="70" as="geometry" />
        </mxCell>
        <mxCell id="DYapM7OonhTBNlPCjqY9-6" style="edgeStyle=orthogonalEdgeStyle;rounded=0;orthogonalLoop=1;jettySize=auto;html=1;exitX=1;exitY=0.5;exitDx=0;exitDy=0;entryX=0;entryY=0.5;entryDx=0;entryDy=0;shadow=1;" edge="1" parent="1" source="DYapM7OonhTBNlPCjqY9-7" target="DYapM7OonhTBNlPCjqY9-2">
          <mxGeometry relative="1" as="geometry" />
        </mxCell>
        <mxCell id="DYapM7OonhTBNlPCjqY9-7" value="&lt;p style=&quot;margin:0px;margin-top:4px;text-align:center;&quot;&gt;&lt;b&gt;Body Type&lt;/b&gt;&lt;/p&gt;&lt;hr size=&quot;1&quot; style=&quot;border-style:solid;&quot;&gt;&lt;p style=&quot;margin:0px;margin-left:4px;&quot;&gt;+ Format: string = &quot;TEXT&quot;&lt;br&gt;+ Size: Int&lt;/p&gt;&lt;p style=&quot;margin:0px;margin-left:4px;&quot;&gt;&lt;br&gt;&lt;/p&gt;" style="verticalAlign=top;align=left;overflow=fill;html=1;whiteSpace=wrap;shadow=1;" vertex="1" parent="1">
          <mxGeometry x="-468" y="366" width="190" height="70" as="geometry" />
        </mxCell>
        <mxCell id="DYapM7OonhTBNlPCjqY9-8" style="edgeStyle=orthogonalEdgeStyle;rounded=0;orthogonalLoop=1;jettySize=auto;html=1;exitX=1;exitY=0.5;exitDx=0;exitDy=0;entryX=0;entryY=0.5;entryDx=0;entryDy=0;shadow=1;" edge="1" parent="1" source="DYapM7OonhTBNlPCjqY9-9" target="DYapM7OonhTBNlPCjqY9-3">
          <mxGeometry relative="1" as="geometry" />
        </mxCell>
        <mxCell id="DYapM7OonhTBNlPCjqY9-9" value="&lt;p style=&quot;margin:0px;margin-top:4px;text-align:center;&quot;&gt;&lt;b&gt;Footer Type&lt;/b&gt;&lt;/p&gt;&lt;hr size=&quot;1&quot; style=&quot;border-style:solid;&quot;&gt;&lt;p style=&quot;margin:0px;margin-left:4px;&quot;&gt;+ Format: string = &quot;TEXT&quot;&lt;br&gt;+ Size: Int&lt;/p&gt;&lt;p style=&quot;margin:0px;margin-left:4px;&quot;&gt;&lt;br&gt;&lt;/p&gt;" style="verticalAlign=top;align=left;overflow=fill;html=1;whiteSpace=wrap;shadow=1;" vertex="1" parent="1">
          <mxGeometry x="-468" y="490" width="190" height="70" as="geometry" />
        </mxCell>
        <mxCell id="DYapM7OonhTBNlPCjqY9-15" style="edgeStyle=orthogonalEdgeStyle;rounded=0;orthogonalLoop=1;jettySize=auto;html=1;exitX=1;exitY=0.5;exitDx=0;exitDy=0;entryX=0;entryY=0.5;entryDx=0;entryDy=0;shadow=1;" edge="1" parent="1" source="DYapM7OonhTBNlPCjqY9-14" target="-voEfs8YxXt__p8CRRwc-2">
          <mxGeometry relative="1" as="geometry" />
        </mxCell>
        <mxCell id="DYapM7OonhTBNlPCjqY9-14" value="&lt;b&gt;&lt;i&gt;Buttons&lt;/i&gt;&lt;/b&gt;" style="rounded=1;whiteSpace=wrap;html=1;shadow=1;" vertex="1" parent="1">
          <mxGeometry x="-198" y="631" width="135" height="60" as="geometry" />
        </mxCell>
        <mxCell id="DYapM7OonhTBNlPCjqY9-18" style="edgeStyle=orthogonalEdgeStyle;rounded=0;orthogonalLoop=1;jettySize=auto;html=1;exitX=0.5;exitY=0;exitDx=0;exitDy=0;entryX=0;entryY=0.5;entryDx=0;entryDy=0;shadow=1;" edge="1" parent="1" source="DYapM7OonhTBNlPCjqY9-16" target="DYapM7OonhTBNlPCjqY9-14">
          <mxGeometry relative="1" as="geometry" />
        </mxCell>
        <mxCell id="DYapM7OonhTBNlPCjqY9-16" value="&lt;p style=&quot;margin:0px;margin-top:4px;text-align:center;&quot;&gt;&lt;b&gt;Button Type&lt;/b&gt;&lt;/p&gt;&lt;hr size=&quot;1&quot; style=&quot;border-style:solid;&quot;&gt;&lt;p style=&quot;margin:0px;margin-left:4px;&quot;&gt;+ Format: string = &quot;TEXT&quot;&lt;br&gt;+ Size: Int&lt;/p&gt;&lt;p style=&quot;margin:0px;margin-left:4px;&quot;&gt;&lt;br&gt;&lt;/p&gt;" style="verticalAlign=top;align=left;overflow=fill;html=1;whiteSpace=wrap;shadow=1;" vertex="1" parent="1">
          <mxGeometry x="-761" y="760" width="190" height="70" as="geometry" />
        </mxCell>
        <mxCell id="DYapM7OonhTBNlPCjqY9-20" style="edgeStyle=orthogonalEdgeStyle;rounded=0;orthogonalLoop=1;jettySize=auto;html=1;exitX=0.5;exitY=0;exitDx=0;exitDy=0;entryX=0;entryY=0.5;entryDx=0;entryDy=0;shadow=1;" edge="1" parent="1" source="DYapM7OonhTBNlPCjqY9-19" target="DYapM7OonhTBNlPCjqY9-14">
          <mxGeometry relative="1" as="geometry" />
        </mxCell>
        <mxCell id="DYapM7OonhTBNlPCjqY9-19" value="&lt;p style=&quot;margin:0px;margin-top:4px;text-align:center;&quot;&gt;&lt;b&gt;phone_number&lt;/b&gt;&lt;/p&gt;&lt;hr size=&quot;1&quot; style=&quot;border-style:solid;&quot;&gt;&lt;p style=&quot;margin:0px;margin-left:4px;&quot;&gt;+ Format: string = &quot;phone number&quot;&lt;br&gt;+ Size: Int&lt;/p&gt;&lt;p style=&quot;margin:0px;margin-left:4px;&quot;&gt;&lt;br&gt;&lt;/p&gt;" style="verticalAlign=top;align=left;overflow=fill;html=1;whiteSpace=wrap;shadow=1;" vertex="1" parent="1">
          <mxGeometry x="-550" y="760" width="190" height="70" as="geometry" />
        </mxCell>
        <mxCell id="DYapM7OonhTBNlPCjqY9-22" style="edgeStyle=orthogonalEdgeStyle;rounded=0;orthogonalLoop=1;jettySize=auto;html=1;exitX=0.5;exitY=0;exitDx=0;exitDy=0;entryX=0;entryY=0.5;entryDx=0;entryDy=0;shadow=1;" edge="1" parent="1" source="DYapM7OonhTBNlPCjqY9-21" target="DYapM7OonhTBNlPCjqY9-14">
          <mxGeometry relative="1" as="geometry" />
        </mxCell>
        <mxCell id="DYapM7OonhTBNlPCjqY9-21" value="&lt;p style=&quot;margin:0px;margin-top:4px;text-align:center;&quot;&gt;&lt;b&gt;quick_reply&lt;/b&gt;&lt;/p&gt;&lt;hr size=&quot;1&quot; style=&quot;border-style:solid;&quot;&gt;&lt;p style=&quot;margin:0px;margin-left:4px;&quot;&gt;+ Format: string = &quot;options&quot;&lt;br&gt;+ Size: Int&lt;/p&gt;&lt;p style=&quot;margin:0px;margin-left:4px;&quot;&gt;&lt;br&gt;&lt;/p&gt;" style="verticalAlign=top;align=left;overflow=fill;html=1;whiteSpace=wrap;shadow=1;" vertex="1" parent="1">
          <mxGeometry x="-340" y="760" width="190" height="70" as="geometry" />
        </mxCell>
      </root>
    </mxGraphModel>
  </diagram>
  <diagram id="bCs5c0hu6I2I0xLoqiQq" name="text_with_media_and_button">
    <mxGraphModel dx="2351" dy="921" grid="1" gridSize="10" guides="1" tooltips="1" connect="1" arrows="1" fold="1" page="1" pageScale="1" pageWidth="850" pageHeight="1100" math="0" shadow="0">
      <root>
        <mxCell id="0" />
        <mxCell id="1" parent="0" />
        <mxCell id="Th-9YWR94njawol-Jgw5-1" value="&lt;b&gt;&lt;i&gt;Start&lt;/i&gt;&lt;/b&gt;" style="ellipse;whiteSpace=wrap;html=1;shadow=1;" parent="1" vertex="1">
          <mxGeometry x="340" y="100" width="100" height="40" as="geometry" />
        </mxCell>
        <mxCell id="Th-9YWR94njawol-Jgw5-2" style="edgeStyle=orthogonalEdgeStyle;rounded=0;orthogonalLoop=1;jettySize=auto;html=1;exitX=0;exitY=0.5;exitDx=0;exitDy=0;entryX=1;entryY=0.5;entryDx=0;entryDy=0;shadow=1;" parent="1" source="Th-9YWR94njawol-Jgw5-4" target="Th-9YWR94njawol-Jgw5-11" edge="1">
          <mxGeometry relative="1" as="geometry" />
        </mxCell>
        <mxCell id="Th-9YWR94njawol-Jgw5-3" style="edgeStyle=orthogonalEdgeStyle;rounded=0;orthogonalLoop=1;jettySize=auto;html=1;exitX=1;exitY=0.5;exitDx=0;exitDy=0;entryX=0;entryY=0.5;entryDx=0;entryDy=0;shadow=1;" parent="1" source="Th-9YWR94njawol-Jgw5-4" target="Th-9YWR94njawol-Jgw5-9" edge="1">
          <mxGeometry relative="1" as="geometry" />
        </mxCell>
        <mxCell id="Th-9YWR94njawol-Jgw5-4" value="&lt;b&gt;&lt;i&gt;Template selection&lt;/i&gt;&lt;/b&gt;" style="rhombus;whiteSpace=wrap;html=1;shadow=1;" parent="1" vertex="1">
          <mxGeometry x="320" y="200" width="140" height="140" as="geometry" />
        </mxCell>
        <mxCell id="Th-9YWR94njawol-Jgw5-5" value="&lt;b&gt;&lt;font style=&quot;font-size: 14px;&quot;&gt;UML Diagram for publishing message with text,media and button&lt;/font&gt;&amp;nbsp;&lt;/b&gt;" style="text;html=1;align=center;verticalAlign=middle;resizable=0;points=[];autosize=1;strokeColor=none;fillColor=none;shadow=1;" parent="1" vertex="1">
          <mxGeometry x="180" y="30" width="460" height="30" as="geometry" />
        </mxCell>
        <mxCell id="Th-9YWR94njawol-Jgw5-6" value="" style="endArrow=classic;html=1;rounded=0;exitX=0.5;exitY=1;exitDx=0;exitDy=0;shadow=1;" parent="1" source="Th-9YWR94njawol-Jgw5-1" target="Th-9YWR94njawol-Jgw5-4" edge="1">
          <mxGeometry width="50" height="50" relative="1" as="geometry">
            <mxPoint x="500" y="240" as="sourcePoint" />
            <mxPoint x="550" y="190" as="targetPoint" />
          </mxGeometry>
        </mxCell>
        <mxCell id="Th-9YWR94njawol-Jgw5-7" style="edgeStyle=orthogonalEdgeStyle;rounded=0;orthogonalLoop=1;jettySize=auto;html=1;exitX=0.5;exitY=1;exitDx=0;exitDy=0;shadow=1;" parent="1" source="Th-9YWR94njawol-Jgw5-4" target="Th-9YWR94njawol-Jgw5-4" edge="1">
          <mxGeometry relative="1" as="geometry" />
        </mxCell>
        <mxCell id="Th-9YWR94njawol-Jgw5-8" style="edgeStyle=orthogonalEdgeStyle;rounded=0;orthogonalLoop=1;jettySize=auto;html=1;exitX=0.5;exitY=1;exitDx=0;exitDy=0;shadow=1;" parent="1" source="Th-9YWR94njawol-Jgw5-9" edge="1">
          <mxGeometry relative="1" as="geometry">
            <mxPoint x="655" y="370" as="targetPoint" />
          </mxGeometry>
        </mxCell>
        <mxCell id="Th-9YWR94njawol-Jgw5-9" value="&lt;b&gt;&lt;i&gt;Select template from existing template list&lt;/i&gt;&lt;/b&gt;" style="rounded=1;whiteSpace=wrap;html=1;shadow=1;glass=0;" parent="1" vertex="1">
          <mxGeometry x="590" y="235" width="130" height="70" as="geometry" />
        </mxCell>
        <mxCell id="A27Lkd0jvV1zh7VfNjwr-6" style="edgeStyle=orthogonalEdgeStyle;rounded=0;orthogonalLoop=1;jettySize=auto;html=1;exitX=0.5;exitY=1;exitDx=0;exitDy=0;shadow=1;" edge="1" parent="1" source="Th-9YWR94njawol-Jgw5-11" target="A27Lkd0jvV1zh7VfNjwr-2">
          <mxGeometry relative="1" as="geometry" />
        </mxCell>
        <mxCell id="Th-9YWR94njawol-Jgw5-11" value="&lt;b&gt;&lt;i&gt;Create New Template&lt;/i&gt;&lt;/b&gt;" style="rounded=1;whiteSpace=wrap;html=1;shadow=1;" parent="1" vertex="1">
          <mxGeometry x="50" y="240" width="135" height="60" as="geometry" />
        </mxCell>
        <mxCell id="Th-9YWR94njawol-Jgw5-12" style="edgeStyle=orthogonalEdgeStyle;rounded=0;orthogonalLoop=1;jettySize=auto;html=1;exitX=0.5;exitY=1;exitDx=0;exitDy=0;entryX=0.5;entryY=0;entryDx=0;entryDy=0;shadow=1;" parent="1" source="Th-9YWR94njawol-Jgw5-13" target="Th-9YWR94njawol-Jgw5-30" edge="1">
          <mxGeometry relative="1" as="geometry" />
        </mxCell>
        <mxCell id="Th-9YWR94njawol-Jgw5-13" value="&lt;b&gt;&lt;i&gt;Message&lt;/i&gt;&lt;/b&gt;" style="rounded=1;whiteSpace=wrap;html=1;shadow=1;" parent="1" vertex="1">
          <mxGeometry x="595" y="370" width="120" height="60" as="geometry" />
        </mxCell>
        <mxCell id="Th-9YWR94njawol-Jgw5-14" style="edgeStyle=orthogonalEdgeStyle;rounded=0;orthogonalLoop=1;jettySize=auto;html=1;exitX=0;exitY=0.5;exitDx=0;exitDy=0;entryX=1;entryY=0.5;entryDx=0;entryDy=0;shadow=1;" parent="1" source="Th-9YWR94njawol-Jgw5-15" target="Th-9YWR94njawol-Jgw5-13" edge="1">
          <mxGeometry relative="1" as="geometry" />
        </mxCell>
        <mxCell id="Th-9YWR94njawol-Jgw5-15" value="&lt;b&gt;&lt;i&gt;Header&lt;/i&gt;&lt;/b&gt;" style="rounded=1;whiteSpace=wrap;html=1;shadow=1;" parent="1" vertex="1">
          <mxGeometry x="930" y="230" width="120" height="60" as="geometry" />
        </mxCell>
        <mxCell id="Th-9YWR94njawol-Jgw5-16" style="edgeStyle=orthogonalEdgeStyle;rounded=0;orthogonalLoop=1;jettySize=auto;html=1;exitX=0;exitY=0.5;exitDx=0;exitDy=0;entryX=1;entryY=0.5;entryDx=0;entryDy=0;shadow=1;" parent="1" source="Th-9YWR94njawol-Jgw5-17" target="Th-9YWR94njawol-Jgw5-15" edge="1">
          <mxGeometry relative="1" as="geometry" />
        </mxCell>
        <mxCell id="Th-9YWR94njawol-Jgw5-17" value="&lt;p style=&quot;margin:0px;margin-top:4px;text-align:center;&quot;&gt;&lt;b&gt;Header Type&lt;/b&gt;&lt;/p&gt;&lt;hr size=&quot;1&quot; style=&quot;border-style:solid;&quot;&gt;&lt;p style=&quot;margin:0px;margin-left:4px;&quot;&gt;+ Format: string = &quot;TEXT&quot;&lt;br&gt;+ Size: Int&lt;/p&gt;&lt;p style=&quot;margin:0px;margin-left:4px;&quot;&gt;&lt;br&gt;&lt;/p&gt;" style="verticalAlign=top;align=left;overflow=fill;html=1;whiteSpace=wrap;shadow=1;" parent="1" vertex="1">
          <mxGeometry x="1151" y="225" width="190" height="70" as="geometry" />
        </mxCell>
        <mxCell id="Th-9YWR94njawol-Jgw5-18" style="edgeStyle=orthogonalEdgeStyle;rounded=0;orthogonalLoop=1;jettySize=auto;html=1;exitX=0;exitY=0.5;exitDx=0;exitDy=0;entryX=1;entryY=0.5;entryDx=0;entryDy=0;shadow=1;" parent="1" source="Th-9YWR94njawol-Jgw5-19" target="Th-9YWR94njawol-Jgw5-17" edge="1">
          <mxGeometry relative="1" as="geometry" />
        </mxCell>
        <mxCell id="Th-9YWR94njawol-Jgw5-19" value="&lt;p style=&quot;margin:0px;margin-top:4px;text-align:center;&quot;&gt;&lt;b&gt;Text&lt;/b&gt;&lt;/p&gt;&lt;hr size=&quot;1&quot; style=&quot;border-style:solid;&quot;&gt;&lt;p style=&quot;margin:0px;margin-left:4px;&quot;&gt;+ Format: string&lt;br&gt;+ Size: Int&lt;/p&gt;&lt;p style=&quot;margin:0px;margin-left:4px;&quot;&gt;&lt;br&gt;&lt;/p&gt;" style="verticalAlign=top;align=left;overflow=fill;html=1;whiteSpace=wrap;shadow=1;" parent="1" vertex="1">
          <mxGeometry x="1461" y="159" width="190" height="70" as="geometry" />
        </mxCell>
        <mxCell id="Th-9YWR94njawol-Jgw5-20" style="edgeStyle=orthogonalEdgeStyle;rounded=0;orthogonalLoop=1;jettySize=auto;html=1;exitX=0;exitY=0.5;exitDx=0;exitDy=0;entryX=1;entryY=0.5;entryDx=0;entryDy=0;shadow=1;" parent="1" source="Th-9YWR94njawol-Jgw5-21" target="Th-9YWR94njawol-Jgw5-17" edge="1">
          <mxGeometry relative="1" as="geometry" />
        </mxCell>
        <mxCell id="Th-9YWR94njawol-Jgw5-21" value="&lt;p style=&quot;margin:0px;margin-top:4px;text-align:center;&quot;&gt;&lt;b&gt;Media&lt;/b&gt;&lt;/p&gt;&lt;hr size=&quot;1&quot; style=&quot;border-style:solid;&quot;&gt;&lt;p style=&quot;margin:0px;margin-left:4px;&quot;&gt;+&amp;nbsp; Format: binary_code&lt;br&gt;+&amp;nbsp; Size_in_bytes: float&lt;/p&gt;&lt;p style=&quot;margin:0px;margin-left:4px;&quot;&gt;&lt;br&gt;&lt;/p&gt;" style="verticalAlign=top;align=left;overflow=fill;html=1;whiteSpace=wrap;shadow=1;" parent="1" vertex="1">
          <mxGeometry x="1461" y="287" width="190" height="70" as="geometry" />
        </mxCell>
        <mxCell id="Th-9YWR94njawol-Jgw5-22" value="&lt;b&gt;&lt;i&gt;Option 2&lt;/i&gt;&lt;/b&gt;" style="text;html=1;align=center;verticalAlign=middle;resizable=0;points=[];autosize=1;strokeColor=none;fillColor=none;shadow=1;" parent="1" vertex="1">
          <mxGeometry x="475" y="238" width="70" height="30" as="geometry" />
        </mxCell>
        <mxCell id="Th-9YWR94njawol-Jgw5-23" value="&lt;b&gt;&lt;i&gt;Option 1&lt;/i&gt;&lt;/b&gt;" style="text;html=1;align=center;verticalAlign=middle;resizable=0;points=[];autosize=1;strokeColor=none;fillColor=none;shadow=1;" parent="1" vertex="1">
          <mxGeometry x="245" y="238" width="70" height="30" as="geometry" />
        </mxCell>
        <mxCell id="Th-9YWR94njawol-Jgw5-24" style="edgeStyle=orthogonalEdgeStyle;rounded=0;orthogonalLoop=1;jettySize=auto;html=1;exitX=0;exitY=0.5;exitDx=0;exitDy=0;entryX=1;entryY=0.5;entryDx=0;entryDy=0;shadow=1;" parent="1" source="Th-9YWR94njawol-Jgw5-25" target="Th-9YWR94njawol-Jgw5-27" edge="1">
          <mxGeometry relative="1" as="geometry" />
        </mxCell>
        <mxCell id="Th-9YWR94njawol-Jgw5-25" value="&lt;p style=&quot;margin:0px;margin-top:4px;text-align:center;&quot;&gt;&lt;b&gt;Body Type&lt;/b&gt;&lt;/p&gt;&lt;hr size=&quot;1&quot; style=&quot;border-style:solid;&quot;&gt;&lt;p style=&quot;margin:0px;margin-left:4px;&quot;&gt;+ Format: string = &quot;TEXT&quot;&lt;br&gt;+ Size: Int&lt;/p&gt;&lt;p style=&quot;margin:0px;margin-left:4px;&quot;&gt;&lt;br&gt;&lt;/p&gt;" style="verticalAlign=top;align=left;overflow=fill;html=1;whiteSpace=wrap;shadow=1;" parent="1" vertex="1">
          <mxGeometry x="1151" y="365" width="190" height="70" as="geometry" />
        </mxCell>
        <mxCell id="Th-9YWR94njawol-Jgw5-26" style="edgeStyle=orthogonalEdgeStyle;rounded=0;orthogonalLoop=1;jettySize=auto;html=1;exitX=0;exitY=0.5;exitDx=0;exitDy=0;entryX=1;entryY=0.5;entryDx=0;entryDy=0;shadow=1;" parent="1" source="Th-9YWR94njawol-Jgw5-27" target="Th-9YWR94njawol-Jgw5-13" edge="1">
          <mxGeometry relative="1" as="geometry" />
        </mxCell>
        <mxCell id="Th-9YWR94njawol-Jgw5-27" value="&lt;b&gt;&lt;i&gt;Body&lt;/i&gt;&lt;/b&gt;" style="rounded=1;whiteSpace=wrap;html=1;shadow=1;" parent="1" vertex="1">
          <mxGeometry x="930" y="370" width="120" height="60" as="geometry" />
        </mxCell>
        <mxCell id="Th-9YWR94njawol-Jgw5-28" value="&lt;b&gt;&lt;i&gt;Stop&lt;/i&gt;&lt;/b&gt;" style="ellipse;whiteSpace=wrap;html=1;aspect=fixed;shadow=1;" parent="1" vertex="1">
          <mxGeometry x="360" y="1067" width="60" height="60" as="geometry" />
        </mxCell>
        <mxCell id="Th-9YWR94njawol-Jgw5-29" style="edgeStyle=orthogonalEdgeStyle;rounded=0;orthogonalLoop=1;jettySize=auto;html=1;exitX=0.5;exitY=1;exitDx=0;exitDy=0;entryX=0.5;entryY=0;entryDx=0;entryDy=0;shadow=1;" parent="1" source="Th-9YWR94njawol-Jgw5-30" target="Th-9YWR94njawol-Jgw5-39" edge="1">
          <mxGeometry relative="1" as="geometry" />
        </mxCell>
        <mxCell id="Th-9YWR94njawol-Jgw5-30" value="&lt;b&gt;&lt;i&gt;Preview Message&lt;/i&gt;&lt;/b&gt;" style="rounded=1;whiteSpace=wrap;html=1;shadow=1;" parent="1" vertex="1">
          <mxGeometry x="595" y="500" width="120" height="60" as="geometry" />
        </mxCell>
        <mxCell id="Th-9YWR94njawol-Jgw5-31" style="edgeStyle=orthogonalEdgeStyle;rounded=0;orthogonalLoop=1;jettySize=auto;html=1;exitX=0.5;exitY=1;exitDx=0;exitDy=0;entryX=0.5;entryY=0;entryDx=0;entryDy=0;shadow=1;" parent="1" source="Th-9YWR94njawol-Jgw5-32" target="Th-9YWR94njawol-Jgw5-28" edge="1">
          <mxGeometry relative="1" as="geometry" />
        </mxCell>
        <mxCell id="Th-9YWR94njawol-Jgw5-32" value="&lt;b&gt;&lt;i&gt;send message to user&lt;/i&gt;&lt;/b&gt;" style="rounded=1;whiteSpace=wrap;html=1;shadow=1;" parent="1" vertex="1">
          <mxGeometry x="330" y="910" width="120" height="60" as="geometry" />
        </mxCell>
        <mxCell id="Th-9YWR94njawol-Jgw5-33" style="edgeStyle=orthogonalEdgeStyle;rounded=0;orthogonalLoop=1;jettySize=auto;html=1;exitX=0;exitY=0.5;exitDx=0;exitDy=0;entryX=1;entryY=0.5;entryDx=0;entryDy=0;shadow=1;" parent="1" source="Th-9YWR94njawol-Jgw5-34" target="Th-9YWR94njawol-Jgw5-13" edge="1">
          <mxGeometry relative="1" as="geometry" />
        </mxCell>
        <mxCell id="Th-9YWR94njawol-Jgw5-34" value="&lt;b&gt;&lt;i&gt;Footer&lt;br&gt;(optional)&lt;/i&gt;&lt;/b&gt;" style="rounded=1;whiteSpace=wrap;html=1;shadow=1;" parent="1" vertex="1">
          <mxGeometry x="930" y="510" width="120" height="60" as="geometry" />
        </mxCell>
        <mxCell id="Th-9YWR94njawol-Jgw5-35" style="edgeStyle=orthogonalEdgeStyle;rounded=0;orthogonalLoop=1;jettySize=auto;html=1;exitX=0;exitY=0.5;exitDx=0;exitDy=0;entryX=1;entryY=0.5;entryDx=0;entryDy=0;shadow=1;" parent="1" source="Th-9YWR94njawol-Jgw5-36" target="Th-9YWR94njawol-Jgw5-34" edge="1">
          <mxGeometry relative="1" as="geometry" />
        </mxCell>
        <mxCell id="Th-9YWR94njawol-Jgw5-36" value="&lt;p style=&quot;margin:0px;margin-top:4px;text-align:center;&quot;&gt;&lt;b&gt;Footer Type&lt;/b&gt;&lt;/p&gt;&lt;hr size=&quot;1&quot; style=&quot;border-style:solid;&quot;&gt;&lt;p style=&quot;margin:0px;margin-left:4px;&quot;&gt;+ Format: string = &quot;TEXT&quot;&lt;br&gt;+ Size: Int&lt;/p&gt;&lt;p style=&quot;margin:0px;margin-left:4px;&quot;&gt;&lt;br&gt;&lt;/p&gt;" style="verticalAlign=top;align=left;overflow=fill;html=1;whiteSpace=wrap;shadow=1;" parent="1" vertex="1">
          <mxGeometry x="1151" y="505" width="190" height="70" as="geometry" />
        </mxCell>
        <mxCell id="Th-9YWR94njawol-Jgw5-37" style="edgeStyle=orthogonalEdgeStyle;rounded=0;orthogonalLoop=1;jettySize=auto;html=1;exitX=0;exitY=0.5;exitDx=0;exitDy=0;entryX=0;entryY=0.5;entryDx=0;entryDy=0;shadow=1;" parent="1" source="Th-9YWR94njawol-Jgw5-39" target="Th-9YWR94njawol-Jgw5-13" edge="1">
          <mxGeometry relative="1" as="geometry">
            <Array as="points">
              <mxPoint x="510" y="674" />
              <mxPoint x="510" y="400" />
            </Array>
          </mxGeometry>
        </mxCell>
        <mxCell id="rv6H2vrdwPFcgs3ugHAM-2" style="edgeStyle=orthogonalEdgeStyle;rounded=0;orthogonalLoop=1;jettySize=auto;html=1;exitX=0.5;exitY=1;exitDx=0;exitDy=0;entryX=0.5;entryY=0;entryDx=0;entryDy=0;shadow=1;" edge="1" parent="1" source="Th-9YWR94njawol-Jgw5-39" target="rv6H2vrdwPFcgs3ugHAM-1">
          <mxGeometry relative="1" as="geometry" />
        </mxCell>
        <mxCell id="Th-9YWR94njawol-Jgw5-39" value="&lt;b&gt;&lt;i&gt;Confirmation&lt;/i&gt;&lt;/b&gt;" style="rhombus;whiteSpace=wrap;html=1;shadow=1;" parent="1" vertex="1">
          <mxGeometry x="605" y="624" width="100" height="100" as="geometry" />
        </mxCell>
        <mxCell id="Th-9YWR94njawol-Jgw5-40" value="&lt;b&gt;&lt;i&gt;NO&lt;/i&gt;&lt;/b&gt;" style="text;html=1;align=center;verticalAlign=middle;resizable=0;points=[];autosize=1;strokeColor=none;fillColor=none;shadow=1;" parent="1" vertex="1">
          <mxGeometry x="550" y="622" width="40" height="30" as="geometry" />
        </mxCell>
        <mxCell id="Th-9YWR94njawol-Jgw5-41" value="&lt;b&gt;&lt;i&gt;YES&lt;/i&gt;&lt;/b&gt;" style="text;html=1;align=center;verticalAlign=middle;resizable=0;points=[];autosize=1;strokeColor=none;fillColor=none;shadow=1;" parent="1" vertex="1">
          <mxGeometry x="595" y="725" width="50" height="30" as="geometry" />
        </mxCell>
        <mxCell id="Th-9YWR94njawol-Jgw5-42" style="edgeStyle=orthogonalEdgeStyle;rounded=0;orthogonalLoop=1;jettySize=auto;html=1;exitX=0;exitY=0.5;exitDx=0;exitDy=0;entryX=1;entryY=0.5;entryDx=0;entryDy=0;shadow=1;" parent="1" source="Th-9YWR94njawol-Jgw5-43" target="Th-9YWR94njawol-Jgw5-13" edge="1">
          <mxGeometry relative="1" as="geometry" />
        </mxCell>
        <mxCell id="Th-9YWR94njawol-Jgw5-43" value="&lt;b&gt;&lt;i&gt;Buttons&lt;/i&gt;&lt;/b&gt;" style="rounded=1;whiteSpace=wrap;html=1;shadow=1;" parent="1" vertex="1">
          <mxGeometry x="930" y="660" width="120" height="60" as="geometry" />
        </mxCell>
        <mxCell id="Th-9YWR94njawol-Jgw5-44" style="edgeStyle=orthogonalEdgeStyle;rounded=0;orthogonalLoop=1;jettySize=auto;html=1;exitX=0;exitY=0.5;exitDx=0;exitDy=0;shadow=1;" parent="1" source="Th-9YWR94njawol-Jgw5-45" target="Th-9YWR94njawol-Jgw5-43" edge="1">
          <mxGeometry relative="1" as="geometry" />
        </mxCell>
        <mxCell id="Th-9YWR94njawol-Jgw5-45" value="&lt;p style=&quot;margin:0px;margin-top:4px;text-align:center;&quot;&gt;&lt;b&gt;Button Type&lt;/b&gt;&lt;/p&gt;&lt;hr size=&quot;1&quot; style=&quot;border-style:solid;&quot;&gt;&lt;p style=&quot;margin:0px;margin-left:4px;&quot;&gt;+ Format: string = &quot;TEXT&quot;&lt;br&gt;+ Size: Int&lt;/p&gt;&lt;p style=&quot;margin:0px;margin-left:4px;&quot;&gt;&lt;br&gt;&lt;/p&gt;" style="verticalAlign=top;align=left;overflow=fill;html=1;whiteSpace=wrap;shadow=1;" parent="1" vertex="1">
          <mxGeometry x="1153" y="655" width="190" height="70" as="geometry" />
        </mxCell>
        <mxCell id="Th-9YWR94njawol-Jgw5-46" style="edgeStyle=orthogonalEdgeStyle;rounded=0;orthogonalLoop=1;jettySize=auto;html=1;exitX=0.5;exitY=0;exitDx=0;exitDy=0;entryX=0.5;entryY=1;entryDx=0;entryDy=0;shadow=1;" parent="1" source="Th-9YWR94njawol-Jgw5-47" target="Th-9YWR94njawol-Jgw5-45" edge="1">
          <mxGeometry relative="1" as="geometry" />
        </mxCell>
        <mxCell id="Th-9YWR94njawol-Jgw5-47" value="&lt;p style=&quot;margin:0px;margin-top:4px;text-align:center;&quot;&gt;&lt;b&gt;url&lt;/b&gt;&lt;/p&gt;&lt;hr size=&quot;1&quot; style=&quot;border-style:solid;&quot;&gt;&lt;p style=&quot;margin:0px;margin-left:4px;&quot;&gt;+ Format: string = &quot;url link&quot;&lt;br&gt;+ Size: Int&lt;/p&gt;&lt;p style=&quot;margin:0px;margin-left:4px;&quot;&gt;&lt;br&gt;&lt;/p&gt;" style="verticalAlign=top;align=left;overflow=fill;html=1;whiteSpace=wrap;shadow=1;" parent="1" vertex="1">
          <mxGeometry x="876" y="830" width="190" height="70" as="geometry" />
        </mxCell>
        <mxCell id="Th-9YWR94njawol-Jgw5-48" style="edgeStyle=orthogonalEdgeStyle;rounded=0;orthogonalLoop=1;jettySize=auto;html=1;exitX=0.5;exitY=0;exitDx=0;exitDy=0;entryX=0.5;entryY=1;entryDx=0;entryDy=0;shadow=1;" parent="1" source="Th-9YWR94njawol-Jgw5-49" target="Th-9YWR94njawol-Jgw5-45" edge="1">
          <mxGeometry relative="1" as="geometry" />
        </mxCell>
        <mxCell id="Th-9YWR94njawol-Jgw5-49" value="&lt;p style=&quot;margin:0px;margin-top:4px;text-align:center;&quot;&gt;&lt;b&gt;phone_number&lt;/b&gt;&lt;/p&gt;&lt;hr size=&quot;1&quot; style=&quot;border-style:solid;&quot;&gt;&lt;p style=&quot;margin:0px;margin-left:4px;&quot;&gt;+ Format: string = &quot;phone number&quot;&lt;br&gt;+ Size: Int&lt;/p&gt;&lt;p style=&quot;margin:0px;margin-left:4px;&quot;&gt;&lt;br&gt;&lt;/p&gt;" style="verticalAlign=top;align=left;overflow=fill;html=1;whiteSpace=wrap;shadow=1;" parent="1" vertex="1">
          <mxGeometry x="1153" y="830" width="190" height="70" as="geometry" />
        </mxCell>
        <mxCell id="Th-9YWR94njawol-Jgw5-50" style="edgeStyle=orthogonalEdgeStyle;rounded=0;orthogonalLoop=1;jettySize=auto;html=1;exitX=0.5;exitY=0;exitDx=0;exitDy=0;entryX=0.5;entryY=1;entryDx=0;entryDy=0;shadow=1;" parent="1" source="Th-9YWR94njawol-Jgw5-51" target="Th-9YWR94njawol-Jgw5-45" edge="1">
          <mxGeometry relative="1" as="geometry" />
        </mxCell>
        <mxCell id="Th-9YWR94njawol-Jgw5-51" value="&lt;p style=&quot;margin:0px;margin-top:4px;text-align:center;&quot;&gt;&lt;b&gt;quick_reply&lt;/b&gt;&lt;/p&gt;&lt;hr size=&quot;1&quot; style=&quot;border-style:solid;&quot;&gt;&lt;p style=&quot;margin:0px;margin-left:4px;&quot;&gt;+ Format: string = &quot;options&quot;&lt;br&gt;+ Size: Int&lt;/p&gt;&lt;p style=&quot;margin:0px;margin-left:4px;&quot;&gt;&lt;br&gt;&lt;/p&gt;" style="verticalAlign=top;align=left;overflow=fill;html=1;whiteSpace=wrap;shadow=1;" parent="1" vertex="1">
          <mxGeometry x="1426" y="830" width="190" height="70" as="geometry" />
        </mxCell>
        <mxCell id="rv6H2vrdwPFcgs3ugHAM-3" style="edgeStyle=orthogonalEdgeStyle;rounded=0;orthogonalLoop=1;jettySize=auto;html=1;exitX=0.5;exitY=1;exitDx=0;exitDy=0;entryX=1;entryY=0.5;entryDx=0;entryDy=0;shadow=1;" edge="1" parent="1" source="rv6H2vrdwPFcgs3ugHAM-1" target="Th-9YWR94njawol-Jgw5-32">
          <mxGeometry relative="1" as="geometry" />
        </mxCell>
        <mxCell id="rv6H2vrdwPFcgs3ugHAM-1" value="&lt;b&gt;&lt;i&gt;Recipient&#39;s Phone number&lt;br&gt;(Approved)&lt;/i&gt;&lt;/b&gt;" style="rounded=1;whiteSpace=wrap;html=1;shadow=1;" vertex="1" parent="1">
          <mxGeometry x="595" y="800" width="120" height="60" as="geometry" />
        </mxCell>
        <mxCell id="A27Lkd0jvV1zh7VfNjwr-1" style="edgeStyle=orthogonalEdgeStyle;rounded=0;orthogonalLoop=1;jettySize=auto;html=1;exitX=0.5;exitY=1;exitDx=0;exitDy=0;shadow=1;" edge="1" parent="1" source="A27Lkd0jvV1zh7VfNjwr-2" target="A27Lkd0jvV1zh7VfNjwr-4">
          <mxGeometry relative="1" as="geometry" />
        </mxCell>
        <mxCell id="A27Lkd0jvV1zh7VfNjwr-2" value="&lt;b&gt;&lt;i&gt;Template Components&lt;/i&gt;&lt;/b&gt;" style="rounded=1;whiteSpace=wrap;html=1;shadow=1;" vertex="1" parent="1">
          <mxGeometry x="50" y="395" width="135" height="60" as="geometry" />
        </mxCell>
        <mxCell id="A27Lkd0jvV1zh7VfNjwr-3" style="edgeStyle=orthogonalEdgeStyle;rounded=0;orthogonalLoop=1;jettySize=auto;html=1;exitX=0.5;exitY=1;exitDx=0;exitDy=0;shadow=1;" edge="1" parent="1" source="A27Lkd0jvV1zh7VfNjwr-4" target="A27Lkd0jvV1zh7VfNjwr-5">
          <mxGeometry relative="1" as="geometry" />
        </mxCell>
        <mxCell id="A27Lkd0jvV1zh7VfNjwr-4" value="&lt;b&gt;&lt;i&gt;Preview Template&lt;/i&gt;&lt;/b&gt;" style="rounded=1;whiteSpace=wrap;html=1;shadow=1;" vertex="1" parent="1">
          <mxGeometry x="50" y="548" width="135" height="60" as="geometry" />
        </mxCell>
        <mxCell id="A27Lkd0jvV1zh7VfNjwr-7" style="edgeStyle=orthogonalEdgeStyle;rounded=0;orthogonalLoop=1;jettySize=auto;html=1;exitX=0.5;exitY=1;exitDx=0;exitDy=0;entryX=0;entryY=0.5;entryDx=0;entryDy=0;shadow=1;" edge="1" parent="1" source="A27Lkd0jvV1zh7VfNjwr-5" target="Th-9YWR94njawol-Jgw5-28">
          <mxGeometry relative="1" as="geometry" />
        </mxCell>
        <mxCell id="A27Lkd0jvV1zh7VfNjwr-5" value="&lt;b&gt;&lt;i&gt;Response&lt;/i&gt;&lt;/b&gt;" style="rounded=1;whiteSpace=wrap;html=1;shadow=1;" vertex="1" parent="1">
          <mxGeometry x="50" y="695" width="135" height="60" as="geometry" />
        </mxCell>
        <mxCell id="Lyp_58K7KGRH_RyL1TiT-17" style="edgeStyle=orthogonalEdgeStyle;rounded=0;orthogonalLoop=1;jettySize=auto;html=1;exitX=1;exitY=0.5;exitDx=0;exitDy=0;entryX=0;entryY=0.5;entryDx=0;entryDy=0;shadow=1;" edge="1" parent="1" source="Lyp_58K7KGRH_RyL1TiT-1" target="A27Lkd0jvV1zh7VfNjwr-2">
          <mxGeometry relative="1" as="geometry" />
        </mxCell>
        <mxCell id="Lyp_58K7KGRH_RyL1TiT-1" value="&lt;b&gt;&lt;i&gt;Header Component&lt;/i&gt;&lt;/b&gt;" style="rounded=1;whiteSpace=wrap;html=1;shadow=1;" vertex="1" parent="1">
          <mxGeometry x="-227" y="215" width="135" height="60" as="geometry" />
        </mxCell>
        <mxCell id="Lyp_58K7KGRH_RyL1TiT-19" style="edgeStyle=orthogonalEdgeStyle;rounded=0;orthogonalLoop=1;jettySize=auto;html=1;exitX=1;exitY=0.5;exitDx=0;exitDy=0;entryX=0;entryY=0.5;entryDx=0;entryDy=0;shadow=1;" edge="1" parent="1" source="Lyp_58K7KGRH_RyL1TiT-2" target="A27Lkd0jvV1zh7VfNjwr-2">
          <mxGeometry relative="1" as="geometry" />
        </mxCell>
        <mxCell id="Lyp_58K7KGRH_RyL1TiT-2" value="&lt;b&gt;&lt;i&gt;Body Component&lt;/i&gt;&lt;/b&gt;" style="rounded=1;whiteSpace=wrap;html=1;shadow=1;" vertex="1" parent="1">
          <mxGeometry x="-227" y="341" width="135" height="60" as="geometry" />
        </mxCell>
        <mxCell id="Lyp_58K7KGRH_RyL1TiT-20" style="edgeStyle=orthogonalEdgeStyle;rounded=0;orthogonalLoop=1;jettySize=auto;html=1;exitX=1;exitY=0.5;exitDx=0;exitDy=0;entryX=0;entryY=0.5;entryDx=0;entryDy=0;shadow=1;" edge="1" parent="1" source="Lyp_58K7KGRH_RyL1TiT-3" target="A27Lkd0jvV1zh7VfNjwr-2">
          <mxGeometry relative="1" as="geometry" />
        </mxCell>
        <mxCell id="Lyp_58K7KGRH_RyL1TiT-3" value="&lt;b&gt;&lt;i&gt;Footer Component&lt;br&gt;(Optional)&lt;/i&gt;&lt;/b&gt;" style="rounded=1;whiteSpace=wrap;html=1;shadow=1;" vertex="1" parent="1">
          <mxGeometry x="-227" y="465" width="135" height="60" as="geometry" />
        </mxCell>
        <mxCell id="Lyp_58K7KGRH_RyL1TiT-4" style="edgeStyle=orthogonalEdgeStyle;rounded=0;orthogonalLoop=1;jettySize=auto;html=1;exitX=1;exitY=0.5;exitDx=0;exitDy=0;entryX=0;entryY=0.5;entryDx=0;entryDy=0;shadow=1;" edge="1" parent="1" source="Lyp_58K7KGRH_RyL1TiT-5" target="Lyp_58K7KGRH_RyL1TiT-1">
          <mxGeometry relative="1" as="geometry" />
        </mxCell>
        <mxCell id="Lyp_58K7KGRH_RyL1TiT-5" value="&lt;p style=&quot;margin:0px;margin-top:4px;text-align:center;&quot;&gt;&lt;b&gt;Header Type&lt;/b&gt;&lt;/p&gt;&lt;hr size=&quot;1&quot; style=&quot;border-style:solid;&quot;&gt;&lt;p style=&quot;margin:0px;margin-left:4px;&quot;&gt;+ Format: string = &quot;MEDIA&quot;&lt;br&gt;+ Size: Int&lt;/p&gt;&lt;p style=&quot;margin:0px;margin-left:4px;&quot;&gt;&lt;br&gt;&lt;/p&gt;" style="verticalAlign=top;align=left;overflow=fill;html=1;whiteSpace=wrap;shadow=1;" vertex="1" parent="1">
          <mxGeometry x="-497" y="210" width="190" height="70" as="geometry" />
        </mxCell>
        <mxCell id="Lyp_58K7KGRH_RyL1TiT-6" style="edgeStyle=orthogonalEdgeStyle;rounded=0;orthogonalLoop=1;jettySize=auto;html=1;exitX=1;exitY=0.5;exitDx=0;exitDy=0;entryX=0;entryY=0.5;entryDx=0;entryDy=0;shadow=1;" edge="1" parent="1" source="Lyp_58K7KGRH_RyL1TiT-7" target="Lyp_58K7KGRH_RyL1TiT-2">
          <mxGeometry relative="1" as="geometry" />
        </mxCell>
        <mxCell id="Lyp_58K7KGRH_RyL1TiT-7" value="&lt;p style=&quot;margin:0px;margin-top:4px;text-align:center;&quot;&gt;&lt;b&gt;Body Type&lt;/b&gt;&lt;/p&gt;&lt;hr size=&quot;1&quot; style=&quot;border-style:solid;&quot;&gt;&lt;p style=&quot;margin:0px;margin-left:4px;&quot;&gt;+ Format: string = &quot;TEXT&quot;&lt;br&gt;+ Size: Int&lt;/p&gt;&lt;p style=&quot;margin:0px;margin-left:4px;&quot;&gt;&lt;br&gt;&lt;/p&gt;" style="verticalAlign=top;align=left;overflow=fill;html=1;whiteSpace=wrap;shadow=1;" vertex="1" parent="1">
          <mxGeometry x="-497" y="336" width="190" height="70" as="geometry" />
        </mxCell>
        <mxCell id="Lyp_58K7KGRH_RyL1TiT-8" style="edgeStyle=orthogonalEdgeStyle;rounded=0;orthogonalLoop=1;jettySize=auto;html=1;exitX=1;exitY=0.5;exitDx=0;exitDy=0;entryX=0;entryY=0.5;entryDx=0;entryDy=0;shadow=1;" edge="1" parent="1" source="Lyp_58K7KGRH_RyL1TiT-9" target="Lyp_58K7KGRH_RyL1TiT-3">
          <mxGeometry relative="1" as="geometry" />
        </mxCell>
        <mxCell id="Lyp_58K7KGRH_RyL1TiT-9" value="&lt;p style=&quot;margin:0px;margin-top:4px;text-align:center;&quot;&gt;&lt;b&gt;Footer Type&lt;/b&gt;&lt;/p&gt;&lt;hr size=&quot;1&quot; style=&quot;border-style:solid;&quot;&gt;&lt;p style=&quot;margin:0px;margin-left:4px;&quot;&gt;+ Format: string = &quot;TEXT&quot;&lt;br&gt;+ Size: Int&lt;/p&gt;&lt;p style=&quot;margin:0px;margin-left:4px;&quot;&gt;&lt;br&gt;&lt;/p&gt;" style="verticalAlign=top;align=left;overflow=fill;html=1;whiteSpace=wrap;shadow=1;" vertex="1" parent="1">
          <mxGeometry x="-497" y="460" width="190" height="70" as="geometry" />
        </mxCell>
        <mxCell id="Lyp_58K7KGRH_RyL1TiT-21" style="edgeStyle=orthogonalEdgeStyle;rounded=0;orthogonalLoop=1;jettySize=auto;html=1;exitX=1;exitY=0.5;exitDx=0;exitDy=0;entryX=0;entryY=0.5;entryDx=0;entryDy=0;shadow=1;" edge="1" parent="1" source="Lyp_58K7KGRH_RyL1TiT-10" target="A27Lkd0jvV1zh7VfNjwr-2">
          <mxGeometry relative="1" as="geometry" />
        </mxCell>
        <mxCell id="Lyp_58K7KGRH_RyL1TiT-10" value="&lt;b&gt;&lt;i&gt;Buttons&lt;/i&gt;&lt;/b&gt;" style="rounded=1;whiteSpace=wrap;html=1;shadow=1;" vertex="1" parent="1">
          <mxGeometry x="-227" y="601" width="135" height="60" as="geometry" />
        </mxCell>
        <mxCell id="Lyp_58K7KGRH_RyL1TiT-11" style="edgeStyle=orthogonalEdgeStyle;rounded=0;orthogonalLoop=1;jettySize=auto;html=1;exitX=0.5;exitY=0;exitDx=0;exitDy=0;entryX=0;entryY=0.5;entryDx=0;entryDy=0;shadow=1;" edge="1" parent="1" source="Lyp_58K7KGRH_RyL1TiT-12" target="Lyp_58K7KGRH_RyL1TiT-10">
          <mxGeometry relative="1" as="geometry" />
        </mxCell>
        <mxCell id="Lyp_58K7KGRH_RyL1TiT-12" value="&lt;p style=&quot;margin:0px;margin-top:4px;text-align:center;&quot;&gt;&lt;b&gt;Button Type&lt;/b&gt;&lt;/p&gt;&lt;hr size=&quot;1&quot; style=&quot;border-style:solid;&quot;&gt;&lt;p style=&quot;margin:0px;margin-left:4px;&quot;&gt;+ Format: string = &quot;TEXT&quot;&lt;br&gt;+ Size: Int&lt;/p&gt;&lt;p style=&quot;margin:0px;margin-left:4px;&quot;&gt;&lt;br&gt;&lt;/p&gt;" style="verticalAlign=top;align=left;overflow=fill;html=1;whiteSpace=wrap;shadow=1;" vertex="1" parent="1">
          <mxGeometry x="-790" y="730" width="190" height="70" as="geometry" />
        </mxCell>
        <mxCell id="Lyp_58K7KGRH_RyL1TiT-13" style="edgeStyle=orthogonalEdgeStyle;rounded=0;orthogonalLoop=1;jettySize=auto;html=1;exitX=0.5;exitY=0;exitDx=0;exitDy=0;entryX=0;entryY=0.5;entryDx=0;entryDy=0;shadow=1;" edge="1" parent="1" source="Lyp_58K7KGRH_RyL1TiT-14" target="Lyp_58K7KGRH_RyL1TiT-10">
          <mxGeometry relative="1" as="geometry" />
        </mxCell>
        <mxCell id="Lyp_58K7KGRH_RyL1TiT-14" value="&lt;p style=&quot;margin:0px;margin-top:4px;text-align:center;&quot;&gt;&lt;b&gt;phone_number&lt;/b&gt;&lt;/p&gt;&lt;hr size=&quot;1&quot; style=&quot;border-style:solid;&quot;&gt;&lt;p style=&quot;margin:0px;margin-left:4px;&quot;&gt;+ Format: string = &quot;phone number&quot;&lt;br&gt;+ Size: Int&lt;/p&gt;&lt;p style=&quot;margin:0px;margin-left:4px;&quot;&gt;&lt;br&gt;&lt;/p&gt;" style="verticalAlign=top;align=left;overflow=fill;html=1;whiteSpace=wrap;shadow=1;" vertex="1" parent="1">
          <mxGeometry x="-579" y="730" width="190" height="70" as="geometry" />
        </mxCell>
        <mxCell id="Lyp_58K7KGRH_RyL1TiT-15" style="edgeStyle=orthogonalEdgeStyle;rounded=0;orthogonalLoop=1;jettySize=auto;html=1;exitX=0.5;exitY=0;exitDx=0;exitDy=0;entryX=0;entryY=0.5;entryDx=0;entryDy=0;shadow=1;" edge="1" parent="1" source="Lyp_58K7KGRH_RyL1TiT-16" target="Lyp_58K7KGRH_RyL1TiT-10">
          <mxGeometry relative="1" as="geometry" />
        </mxCell>
        <mxCell id="Lyp_58K7KGRH_RyL1TiT-16" value="&lt;p style=&quot;margin:0px;margin-top:4px;text-align:center;&quot;&gt;&lt;b&gt;quick_reply&lt;/b&gt;&lt;/p&gt;&lt;hr size=&quot;1&quot; style=&quot;border-style:solid;&quot;&gt;&lt;p style=&quot;margin:0px;margin-left:4px;&quot;&gt;+ Format: string = &quot;options&quot;&lt;br&gt;+ Size: Int&lt;/p&gt;&lt;p style=&quot;margin:0px;margin-left:4px;&quot;&gt;&lt;br&gt;&lt;/p&gt;" style="verticalAlign=top;align=left;overflow=fill;html=1;whiteSpace=wrap;shadow=1;" vertex="1" parent="1">
          <mxGeometry x="-369" y="730" width="190" height="70" as="geometry" />
        </mxCell>
      </root>
    </mxGraphModel>
  </diagram>
</mxfile>
